<svg xmlns="http://www.w3.org/2000/svg" viewBox="0 0 44.4 37"><defs><style>.cls-1{fill:#00c063;}</style></defs><title>Asset 1</title><g id="Layer_2" data-name="Layer 2"><g id="Layer_1-2" data-name="Layer 1"><path class="cls-1" d="M40.68,0h-37A3.72,3.72,0,0,0,0,3.72V24a3.72,3.72,0,0,0,3.72,3.72H16.29L15,31.54A2.78,2.78,0,0,0,13,34.23v.93H10.18a.93.93,0,1,0,0,1.85H34.23a.93.93,0,0,0,0-1.85H31.45v-.93a2.78,2.78,0,0,0-2.08-2.69l-1.26-3.79H40.68A3.72,3.72,0,0,0,44.4,24V3.72A3.72,3.72,0,0,0,40.68,0Zm-12,33.3a.93.93,0,0,1,.93.92v.93H14.8v-.93a.93.93,0,0,1,.92-.92h13ZM17,31.45l1.23-3.7h7.92l1.23,3.7ZM42.55,24a1.87,1.87,0,0,1-1.87,1.87h-37A1.87,1.87,0,0,1,1.85,24v-.91H37a.93.93,0,0,0,0-1.85H1.85V3.72A1.87,1.87,0,0,1,3.72,1.85h37A1.87,1.87,0,0,1,42.55,3.7h-35a.93.93,0,0,0,0,1.85h35V24Z"/><path class="cls-1" d="M16.72,15.19h0a.92.92,0,0,0,.85.76l7.05.47h0a.92.92,0,0,0,1-.8l.59-4.67.18-1.4H27.6a.92.92,0,0,0,0-1.84h-2a.92.92,0,0,0-.92.81l-.28,2.21-.48,3.81-5.47-.36-.51-2.86h3.67a.93.93,0,1,0,0-1.85H16.64a.92.92,0,0,0-.75,1.07Z"/><path class="cls-1" d="M19,17.28a.93.93,0,1,0,.92.92A.93.93,0,0,0,19,17.28Z"/><path class="cls-1" d="M23.74,17.28a.93.93,0,1,0,.92.92A.93.93,0,0,0,23.74,17.28Z"/><path class="cls-1" d="M4.72,3.7H4.31a.93.93,0,0,0,0,1.85h.42a.93.93,0,1,0,0-1.85Z"/><path class="cls-1" d="M39.66,23.13h.39a.93.93,0,0,0,0-1.85h-.39a.93.93,0,0,0,0,1.85Z"/></g></g></svg>