<?xml version="1.0" encoding="utf-8"?>
<!-- Generator: Adobe Illustrator 21.1.0, SVG Export Plug-In . SVG Version: 6.00 Build 0)  -->
<svg version="1.1" id="Layer_1" xmlns="http://www.w3.org/2000/svg" xmlns:xlink="http://www.w3.org/1999/xlink" x="0px" y="0px"
	 viewBox="0 0 48 43" style="enable-background:new 0 0 48 43;" xml:space="preserve">
<style type="text/css">
	.st0{fill:#00C063;}
</style>
<title>Asset 1</title>
<g id="Layer_2">
	<g id="Layer_1-2">
		<path class="st0" d="M42.5,3h-37c-2,0-3.7,1.7-3.7,3.7V27c0,2.1,1.7,3.7,3.7,3.7h12.6l-1.3,3.8c-1.2,0.3-2,1.4-2,2.7v0.9H12
			c-0.5-0.1-1,0.3-1,0.8c-0.1,0.5,0.3,1,0.8,1c0.1,0,0.1,0,0.2,0h24c0.5-0.1,0.9-0.5,0.8-1c0-0.4-0.4-0.8-0.8-0.8h-2.8v-0.9
			c0-1.3-0.9-2.4-2.1-2.7l-1.3-3.8h12.6c2.1,0,3.7-1.7,3.7-3.7c0,0,0,0,0,0V6.7C46.2,4.7,44.5,3,42.5,3C42.5,3,42.5,3,42.5,3z
			 M30.5,36.3c0.5,0,0.9,0.4,0.9,0.9v0.9H16.6v-0.9c0-0.5,0.4-0.9,0.9-0.9H30.5L30.5,36.3z M18.8,34.4l1.2-3.7h7.9l1.2,3.7H18.8z
			 M44.3,27c0,1-0.8,1.9-1.9,1.9h-37c-1,0-1.8-0.9-1.8-1.9v-0.9h35.2c0.5-0.1,0.9-0.5,0.8-1c0-0.4-0.4-0.8-0.8-0.8H3.6V6.7
			c0-1,0.8-1.9,1.9-1.9h37c1,0,1.8,0.8,1.8,1.9h-35c-0.5,0.1-0.9,0.5-0.8,1c0,0.4,0.4,0.8,0.8,0.8h35V27z"/>
		<path class="st0" d="M18.5,18.2L18.5,18.2c0.1,0.4,0.4,0.7,0.9,0.8l7,0.5l0,0c0.5,0,0.9-0.3,1-0.8l0.6-4.7l0.2-1.4h1.2
			c0.5,0,0.9-0.4,0.9-0.9s-0.4-0.9-0.9-0.9h-2c-0.5,0-0.9,0.3-0.9,0.8l-0.3,2.2l-0.5,3.8l-5.5-0.4l-0.5-2.9h3.7c0.5,0.1,1-0.3,1-0.8
			s-0.3-1-0.8-1c-0.1,0-0.1,0-0.2,0h-5c-0.5,0.1-0.8,0.6-0.8,1.1c0,0,0,0,0,0L18.5,18.2z"/>
		<path class="st0" d="M20.8,20.3c-0.5,0-0.9,0.4-0.9,0.9s0.4,0.9,0.9,0.9s0.9-0.4,0.9-0.9c0,0,0,0,0,0
			C21.7,20.7,21.3,20.3,20.8,20.3z"/>
		<path class="st0" d="M25.5,20.3c-0.5,0-0.9,0.4-0.9,0.9s0.4,0.9,0.9,0.9s0.9-0.4,0.9-0.9c0,0,0,0,0,0C26.5,20.7,26,20.3,25.5,20.3
			z"/>
		<path class="st0" d="M6.5,6.7H6.1c-0.5,0.1-0.9,0.5-0.8,1c0,0.4,0.4,0.8,0.8,0.8h0.4c0.5,0.1,1-0.3,1-0.8c0.1-0.5-0.3-1-0.8-1
			C6.7,6.7,6.6,6.7,6.5,6.7L6.5,6.7z"/>
		<path class="st0" d="M41.5,26.1h0.4c0.5-0.1,0.9-0.5,0.8-1c0-0.4-0.4-0.8-0.8-0.8h-0.4c-0.5,0.1-0.9,0.5-0.8,1
			C40.7,25.7,41,26.1,41.5,26.1z"/>
	</g>
</g>
</svg>
