<svg xmlns="http://www.w3.org/2000/svg" viewBox="0 0 43 43"><defs><style>.cls-1{fill:#00c063;}</style></defs><title>Asset 2</title><g id="Layer_2" data-name="Layer 2"><g id="Layer_1-2" data-name="Layer 1"><circle class="cls-1" cx="14.66" cy="30.3" r="0.98"/><path class="cls-1" d="M42,37.14a.92.92,0,0,0-1,1V41H2v-2H39.09a.92.92,0,0,0,1-1V22.48a1,1,0,1,0-2,0V37.14H8.8V23.45h7.82V34.2a1,1,0,0,0,2,0V22.48a.92.92,0,0,0-1-1H7.82a.92.92,0,0,0-1,1V37.14H1a.92.92,0,0,0-1,1V42a.92.92,0,0,0,1,1H42a.92.92,0,0,0,1-1V38.11A.92.92,0,0,0,42,37.14Z"/><path class="cls-1" d="M40.07,5.77V1a.92.92,0,0,0-1-1H3.91a.92.92,0,0,0-1,1V6.74L1,14.46v.2a6,6,0,0,0,2,4.4V34.2a.92.92,0,0,0,1,1,.92.92,0,0,0,1-1V20.13a4.38,4.38,0,0,0,2,.39,5.93,5.93,0,0,0,4.89-2.64,5.84,5.84,0,0,0,9.77,0,5.84,5.84,0,0,0,9.77,0A5.86,5.86,0,0,0,42,14.66v-.2ZM4.89,2H38.11V5.86H4.89ZM36.16,18.57a3.92,3.92,0,0,1-3.91-3.91.92.92,0,0,0-1-1H25.41a1,1,0,0,0,0,2H30.2a3.92,3.92,0,0,1-7.72-1,.92.92,0,0,0-1-1H15.64a1,1,0,0,0,0,2h4.79a3.92,3.92,0,0,1-7.72-1,.92.92,0,0,0-1-1H5.86a1,1,0,0,0,0,2h4.79a3.92,3.92,0,0,1-7.72-.88L4.69,7.82h6.06v2.93a1,1,0,1,0,2,0V7.82h7.82v2.93a1,1,0,0,0,2,0V7.82H30.3v2.93a1,1,0,0,0,2,0V7.82H38.5l1.27,5.86H35.18a1,1,0,0,0,0,2H40A4,4,0,0,1,36.16,18.57Z"/><path class="cls-1" d="M35.18,21.5H21.5a.92.92,0,0,0-1,1V34.2a.92.92,0,0,0,1,1H35.18a.92.92,0,0,0,1-1V22.48A.92.92,0,0,0,35.18,21.5Zm-1,11.73H22.48V23.45H34.2v9.77Z"/></g></g></svg>