<svg xmlns="http://www.w3.org/2000/svg" viewBox="0 0 512 164.17"><defs><style>.cls-1{fill:#975d50;}.cls-2{fill:#7f443b;}</style></defs><title>Asset 1</title><g id="Layer_2" data-name="Layer 2"><g id="Layer_1-2" data-name="Layer 1"><path class="cls-1" d="M416.1,68.27a95.43,95.43,0,0,0-52.36,15.57A130,130,0,0,0,125.36,72.9,95.92,95.92,0,0,0,0,164.16H512A95.9,95.9,0,0,0,416.1,68.27Z"/><path class="cls-2" d="M512,164.17H493a95.94,95.94,0,0,0-91.85-68.25c-1.09,0-2.18,0-3.27.05s-2.06-.05-3.1-.05A95.46,95.46,0,0,0,350.05,107a2.59,2.59,0,0,1-3.57-1.24A130,130,0,0,0,227.27,27.65c-1.06,0-2.11,0-3.16,0s-2.14,0-3.21,0a129.53,129.53,0,0,0-91.51,37.68A130,130,0,0,1,363.74,83.84,95.88,95.88,0,0,1,512,164.17Z"/><circle class="cls-2" cx="108.57" cy="91.71" r="8.59"/><circle class="cls-2" cx="316.7" cy="114.33" r="8.59"/><circle class="cls-2" cx="290.29" cy="86.28" r="8.59"/></g></g></svg>