<?xml version="1.0" encoding="utf-8"?>
<!-- Generator: Adobe Illustrator 21.1.0, SVG Export Plug-In . SVG Version: 6.00 Build 0)  -->
<svg version="1.1" id="Layer_1" xmlns="http://www.w3.org/2000/svg" xmlns:xlink="http://www.w3.org/1999/xlink" x="0px" y="0px"
	 viewBox="0 0 278 208" style="enable-background:new 0 0 278 208;" xml:space="preserve">
<style type="text/css">
	.st0{fill:none;}
	.st1{opacity:0.15;fill:url(#SVGID_1_);}
	.st2{opacity:0.15;fill:url(#SVGID_2_);}
	.st3{enable-background:new    ;}
	.st4{fill:#535456;}
	.st5{fill:#68696B;}
	.st6{fill:#87898C;}
	.st7{fill:#759B4E;}
	.st8{fill:#A8BC6C;}
	.st9{fill:#A6C97D;}
	.st10{fill:#D3E892;}
	.st11{fill:#80B34F;}
	.st12{fill:#BCD676;}
	.st13{fill:#DE7047;}
</style>
<g>
	<g>
		<g>
			<g>
				<g>
					<g>
						<g>
							<path class="st0" d="M66.7,86.5L66.7,86.5L66.7,86.5C66.7,86.5,66.7,86.5,66.7,86.5C66.7,86.5,66.7,86.5,66.7,86.5l0,0.2h0v0
								c0,0,0,0,0,0c0,0,0,0,0,0V86.5z"/>
						</g>
					</g>
				</g>
			</g>
		</g>
		<g>
			<linearGradient id="SVGID_1_" gradientUnits="userSpaceOnUse" x1="201.0339" y1="201.6724" x2="153.9182" y2="121.7184">
				<stop  offset="0" style="stop-color:#000000;stop-opacity:0"/>
				<stop  offset="1" style="stop-color:#000000"/>
			</linearGradient>
			<polygon class="st1" points="149.7,140.7 137.6,148 211.4,193 223.6,186 			"/>
		</g>
		<g>
			<linearGradient id="SVGID_2_" gradientUnits="userSpaceOnUse" x1="201.0339" y1="201.6724" x2="153.9182" y2="121.7184">
				<stop  offset="0" style="stop-color:#000000;stop-opacity:0"/>
				<stop  offset="1" style="stop-color:#000000"/>
			</linearGradient>
			<polygon class="st2" points="149.7,140.7 137.6,148 211.4,193 223.6,186 			"/>
		</g>
	</g>
	<g>
		<path class="st0" d="M67,86.6L67,86.6L67,86.6C67,86.6,67,86.6,67,86.6C67,86.6,67,86.6,67,86.6l0,0.2h0v0c0,0,0,0,0,0
			c0,0,0,0,0,0V86.6z"/>
	</g>
	<g>
		<g class="st3">
			<g>
				<polygon class="st4" points="59.2,24.8 71.5,17.7 71.3,90.2 59,97.3 				"/>
			</g>
			<g>
				<polygon class="st5" points="59,97.3 71.3,90.2 149.8,135.6 137.6,142.7 				"/>
			</g>
			<g>
				<polygon class="st5" points="54.6,22.1 66.8,15 71.5,17.7 59.2,24.8 				"/>
			</g>
			<g>
				<polygon class="st4" points="137.6,142.7 149.8,135.6 149.8,140.9 137.6,148 				"/>
			</g>
			<g>
				<polygon class="st6" points="59.2,24.8 59,97.3 137.6,142.7 137.6,148 54.4,100 54.6,22.1 				"/>
			</g>
			<g>
				<g class="st3">
					<g>
						<polygon class="st7" points="70.4,51.5 82.6,44.3 93,57.2 80.7,64.3 						"/>
					</g>
					<g>
						<polygon class="st8" points="80.7,64.3 93,57.2 103.7,70.6 91.5,77.7 						"/>
					</g>
					<g>
						<polygon class="st7" points="91.5,77.7 103.7,70.6 105.7,73.1 93.5,80.2 						"/>
					</g>
					<g>
						<polygon class="st9" points="99.4,71.9 111.6,64.7 114.5,64.5 102.3,71.6 						"/>
					</g>
					<g>
						<polygon class="st10" points="102.3,71.6 114.5,64.5 125.3,63.6 113.1,70.7 						"/>
					</g>
					<g>
						<polygon class="st9" points="113.1,70.7 125.3,63.6 136.1,62.6 123.9,69.8 						"/>
					</g>
					<g>
						<polygon class="st11" points="69.9,52.1 69.9,81.4 69.8,103.6 80.6,109.8 80.7,84 80.7,64.3 70.4,51.5 						"/>
						<polygon class="st11" points="93.5,80.2 91.5,77.7 91.4,97.4 91.4,116 102.1,122.3 102.2,106 102.3,71.6 99.4,71.9 						"/>
						<polygon class="st11" points="113.1,70.7 113,105.1 112.9,128.5 123.7,134.7 123.8,104.1 123.9,69.8 						"/>
					</g>
					<polygon class="st7" points="134.7,68.8 134.6,103.2 134.5,140.9 146.7,133.8 146.9,96.1 147,61.7 					"/>
					<g>
						<polygon class="st10" points="123.9,69.8 136.1,62.6 147,61.7 134.7,68.8 						"/>
					</g>
					<g>
						<polygon class="st12" points="59.1,82.3 59,97.3 69.8,103.6 69.9,81.4 69.9,52.1 59.1,67.3 						"/>
						<polygon class="st12" points="80.7,84 80.6,109.8 91.4,116 91.4,97.4 91.5,77.7 80.7,64.3 						"/>
						<polygon class="st12" points="102.2,106 102.1,122.3 112.9,128.5 113,105.1 113.1,70.7 102.3,71.6 						"/>
						<polygon class="st12" points="123.9,69.8 123.8,104.1 123.7,134.7 134.5,140.9 134.6,103.2 134.7,68.8 						"/>
					</g>
				</g>
			</g>
			<g>
				<path class="st13" d="M144.3,68.5l-0.5-1.6l-0.4-0.7l-0.6-0.8l-0.5-0.5l-0.6-0.5l-0.4-0.3l-17.1-9.8c-1.7-1-3.1-0.2-3.1,1.8
					c0,1.6,0.9,3.5,2.2,4.7l12.5,7.5l2.1-3l-2.1,3l2.5,1.5l-2.5-1.5l-3,4.2l0,0l-2.8,4c-0.9,1.2-0.4,3.7,1.1,5.5
					c0.2,0.3,0.4,0.5,0.7,0.7c0.3,0.3,0.6,0.5,0.9,0.6c1.1,0.6,2.1,0.6,2.7-0.2l4.3-6.1l4.3-6l0.2-0.4l0.1-0.6l0-0.7
					C144.4,69.1,144.4,68.9,144.3,68.5z"/>
				<g>
					<path class="st13" d="M138.7,64.1l-37,3.2c-2.9,0.3-5.6,1.8-7.3,4.2L94,72c-0.3,0.5-1.1,0.5-1.4,0l-19-23.6
						c-1.7-2.1-4.9-2-6.4,0.2l-8,11.5L59,74l13.3-17.4c0.5-0.6,1.4-0.6,1.8,0L91.4,78c1.1,1.4,3.3,1.3,4.4-0.1l0,0
						c0.7-0.9,1.7-1.5,2.8-1.6l40.8-3.5L138.7,64.1z"/>
				</g>
			</g>
		</g>
	</g>
</g>
</svg>
