<?xml version="1.0" encoding="utf-8"?>
<!-- Generator: Adobe Illustrator 21.1.0, SVG Export Plug-In . SVG Version: 6.00 Build 0)  -->
<svg version="1.1" id="Layer_1" xmlns="http://www.w3.org/2000/svg" xmlns:xlink="http://www.w3.org/1999/xlink" x="0px" y="0px"
	 viewBox="0 0 278 208" style="enable-background:new 0 0 278 208;" xml:space="preserve">
<style type="text/css">
	.st0{fill:none;}
	.st1{opacity:0.15;fill:url(#SVGID_1_);}
	.st2{opacity:0.5;}
	.st3{opacity:0.15;fill:url(#SVGID_2_);}
	.st4{enable-background:new    ;}
	.st5{fill:#6F4E3B;}
	.st6{fill:#725240;}
	.st7{fill:#94684E;}
	.st8{fill:#DEDCD9;}
	.st9{fill:#A6A3A1;}
	.st10{fill:#BCD676;}
	.st11{fill:#7D7D77;}
	.st12{fill:#A6A69F;}
	.st13{fill:#A9A9A5;}
	.st14{fill:#C1C1BC;}
</style>
<g>
	<g>
		<g>
			<g>
				<g>
					<path class="st0" d="M80.2,62.5L80.2,62.5L80.2,62.5C80.2,62.5,80.2,62.5,80.2,62.5C80.2,62.5,80.2,62.5,80.2,62.5l0,0.2h0v0
						c0,0,0,0,0,0c0,0,0,0,0,0V62.5z"/>
				</g>
				<g>
					<g>
						<g>
							<g>
								<g>
									<g>
										<g>
											<path class="st0" d="M79.9,62.4L79.9,62.4L79.9,62.4C79.9,62.4,79.9,62.4,79.9,62.4C79.9,62.4,79.9,62.4,79.9,62.4l0,0.2
												h0v0c0,0,0,0,0,0c0,0,0,0,0,0V62.4z"/>
										</g>
									</g>
								</g>
								<g>
									<linearGradient id="SVGID_1_" gradientUnits="userSpaceOnUse" x1="184.5646" y1="149.8057" x2="150.324" y2="91.7003">
										<stop  offset="0" style="stop-color:#000000;stop-opacity:0"/>
										<stop  offset="1.093298e-02" style="stop-color:#000000;stop-opacity:1.093298e-02"/>
										<stop  offset="1" style="stop-color:#000000"/>
									</linearGradient>
									<polygon class="st1" points="179.1,87.4 106.4,129.6 160.6,161.7 233,119.5 									"/>
								</g>
								<g class="st2">
									<linearGradient id="SVGID_2_" gradientUnits="userSpaceOnUse" x1="184.5646" y1="149.8057" x2="150.324" y2="91.7003">
										<stop  offset="0" style="stop-color:#000000;stop-opacity:0"/>
										<stop  offset="1" style="stop-color:#000000"/>
									</linearGradient>
									<polygon class="st3" points="179.1,87.4 106.4,129.6 160.6,161.7 233,119.5 									"/>
								</g>
							</g>
						</g>
					</g>
				</g>
			</g>
		</g>
	</g>
	<g>
		<g>
			<g>
				<g class="st4">
					<g>
						<path class="st5" d="M182.8,84.9l0,3.4c0,0.9-0.6,1.8-1.8,2.5l0-3.4C182.2,86.7,182.8,85.8,182.8,84.9z"/>
					</g>
					<g>
						<path class="st5" d="M45,92.5l0-3.4c0,0.9,0.6,1.9,1.8,2.6l0,3.4C45.7,94.4,45,93.4,45,92.5z"/>
					</g>
					<g>
						<polygon class="st6" points="114.3,107.3 113.3,107.9 112.8,107.6 						"/>
					</g>
					<g>
						<path class="st7" d="M181,82.3c2.4,1.4,2.5,3.7,0,5.1l-66.1,38.4c-2.4,1.4-6.4,1.4-8.8,0L46.9,91.7c-2.4-1.4-2.5-3.7,0-5.1
							L113,48.1c2.4-1.4,6.4-1.4,8.8,0L181,82.3z"/>
					</g>
					<g>
						<path class="st8" d="M62.9,92.4c-0.1,0-0.1-0.1-0.2-0.1C62.7,92.3,62.8,92.3,62.9,92.4z M62.6,92.2c0,0-0.1-0.1-0.1-0.1
							C62.5,92.1,62.6,92.2,62.6,92.2z M62.5,92.1c-0.1,0-0.1-0.1-0.2-0.1C62.4,92,62.4,92.1,62.5,92.1z M63.1,92.5
							c-0.1,0-0.2-0.1-0.2-0.1C63,92.4,63,92.5,63.1,92.5z M62.1,91.8c0,0,0.1,0.1,0.1,0.1C62.2,91.9,62.2,91.8,62.1,91.8z
							 M61.3,90.1C61.3,90.2,61.3,90.2,61.3,90.1C61.3,90.2,61.3,90.2,61.3,90.1z M61.3,90.3C61.3,90.3,61.3,90.4,61.3,90.3
							C61.3,90.4,61.3,90.3,61.3,90.3z M61.3,90.5C61.4,90.5,61.4,90.5,61.3,90.5C61.4,90.5,61.4,90.5,61.3,90.5z M61.4,90.7
							C61.4,90.7,61.4,90.7,61.4,90.7C61.4,90.7,61.4,90.7,61.4,90.7z M61.5,90.8C61.5,90.9,61.5,90.9,61.5,90.8
							C61.5,90.9,61.5,90.9,61.5,90.8z M61.5,91C61.6,91,61.6,91.1,61.5,91C61.6,91.1,61.6,91,61.5,91z M61.6,91.2
							C61.6,91.2,61.7,91.2,61.6,91.2C61.7,91.2,61.6,91.2,61.6,91.2z M61.7,91.3C61.8,91.4,61.8,91.4,61.7,91.3
							C61.8,91.4,61.8,91.4,61.7,91.3z M61.9,91.5C61.9,91.5,61.9,91.6,61.9,91.5C61.9,91.6,61.9,91.5,61.9,91.5z M62,91.7
							C62,91.7,62.1,91.7,62,91.7C62.1,91.7,62,91.7,62,91.7z M61.3,90C61.3,90,61.3,90,61.3,90C61.3,90,61.3,90,61.3,90z"/>
					</g>
					<g>
						<polygon class="st5" points="181,87.4 181,90.8 114.9,129.2 114.9,125.8 						"/>
					</g>
					<g>
						<polygon class="st5" points="106.1,125.8 106,129.2 46.9,95.1 46.9,91.7 						"/>
					</g>
					<g>
						<path class="st5" d="M114.9,125.8l0,3.4c-2.4,1.4-6.4,1.4-8.8,0l0-3.4C108.5,127.2,112.5,127.2,114.9,125.8z"/>
					</g>
				</g>
			</g>
			<path class="st8" d="M165.8,80.3l-41-23.7c-2.4-1.4-6.4-1.4-8.8,0L63.1,87.4c-2.4,1.4-2.4,3.7,0,5.1l31.1,17.9l3.6-7.8
				c0.3-0.7,0.9-1.2,1.7-1.7c0.3-0.2,0.7-0.3,1-0.5l5.3-0.4l27.5,4.3l32.6-18.9C168.3,84,168.3,81.7,165.8,80.3z"/>
			<g>
				<path class="st9" d="M133.2,104.4l-39.1,6.1l3.6-7.8c0.3-0.7,0.9-1.2,1.7-1.7c1.5-0.8,3.7-1.2,5.9-0.9l0.4,0.1L133.2,104.4z"/>
			</g>
		</g>
		<g>
			<polygon class="st10" points="140.8,82.1 141.6,89.5 98.3,91.1 95.6,75.7 108.6,75.1 110.3,83.3 			"/>
		</g>
		<g>
			<g class="st4">
				<g>
					<path class="st11" d="M154.4,52.9l1.7,1.7c-0.2-0.2-0.4-0.4-0.7-0.6c-1.7-1-4.1-0.2-5.4,1.6c-1.1,1.5-1.1,3.3-0.2,4.4l-1.7-1.7
						c-1-1.1-0.9-2.9,0.2-4.4c1.3-1.8,3.8-2.5,5.4-1.6C153.9,52.5,154.2,52.7,154.4,52.9z"/>
				</g>
				<g>
					<path class="st11" d="M159.1,48.8l1.4,1.7c2.4,2.8,2.4,7.3-0.4,11.1l-1.4-1.7C161.5,56.2,161.5,51.6,159.1,48.8z"/>
				</g>
				<g>
					<polygon class="st11" points="158.7,60 160.1,61.7 155.3,68.3 153.8,66.6 					"/>
				</g>
				<g>
					<path class="st12" d="M158.7,60l-4.9,6.6l-15-8.6l4.9-6.6c3.4-4.6,9.4-6.4,13.6-4C161.4,49.7,162.1,55.4,158.7,60z M148.8,59
						c1.7,1,4.1,0.2,5.4-1.6c1.3-1.8,1.1-4.1-0.6-5c-1.7-1-4.1-0.2-5.4,1.6C146.9,55.8,147.1,58,148.8,59"/>
				</g>
				<path class="st13" d="M166.5,77.4c0,0,0-0.1,0-0.2c0,0,0-0.1,0-0.2l-1-1.2l1,1.2c0-0.1,0-0.2,0-0.3c0,0,0-0.1,0-0.2
					c0,0,0-0.1,0-0.2c0,0,0-0.1-0.1-0.3c0,0,0-0.1-0.1-0.2c0-0.1,0-0.1-0.1-0.3c0,0,0-0.1-0.1-0.2c0,0,0-0.1-0.1-0.2
					c0,0,0-0.1-0.1-0.2c0,0,0-0.1-0.1-0.2c0,0-0.1-0.1-0.1-0.2c0-0.1-0.1-0.1-0.2-0.2l-1.4-1.7c0.1,0.1,0.1,0.1,0.2,0.2l0,0
					c0.1,0.1,0.1,0.1,0.1,0.2c0.1,0.1,0.1,0.1,0.1,0.2l0,0c0.1,0.1,0.1,0.1,0.1,0.2c0.1,0.1,0.1,0.1,0.1,0.2
					c0.1,0.1,0.1,0.2,0.1,0.2c0.1,0.1,0.1,0.2,0.1,0.3c0,0.1,0.1,0.2,0.1,0.2l0,0c0.1,0.2,0.1,0.3,0.1,0.3c0,0.1,0,0.2,0,0.2
					c0,0.1,0,0.2,0,0.2l0,0c0,0.2,0,0.3,0,0.3l0,0c0,0.1,0,0.2,0,0.2l0,0c0,0.1,0,0.2,0,0.2c0,0.1,0,0.2,0,0.2c0,0.1,0,0.2,0,0.2
					c0,0.1,0,0.2,0,0.2c0,0.1,0,0.2-0.1,0.4c0,0.1,0,0.2,0,0.2c0,0.1,0,0.2-0.1,0.2c0,0.1-0.1,0.2-0.1,0.2c0,0.1-0.1,0.2-0.1,0.2
					l1.4,1.7c0,0,0-0.1,0.1-0.2c0,0,0-0.1,0.1-0.2c0,0,0-0.1,0.1-0.2c0,0,0-0.1,0-0.2c0-0.1,0-0.2,0.1-0.4c0,0,0-0.1,0-0.2
					c0,0,0-0.1,0-0.2C166.5,77.5,166.5,77.5,166.5,77.4z"/>
				<g>
					<path class="st14" d="M127,55.8c-1.7-1-5.5-0.3-7.2,2c0-0.1,0.7-1,2.4-3.3c1.7-2.3,5.5-3,7.2-2l9.5,5.5l15,8.6l9.5,5.5
						c0,0,0.1,0.1,0.1,0.1c0.1,0.1,0.1,0.1,0.1,0.1c0.1,0.1,0.1,0.1,0.1,0.1c0.1,0.1,0.1,0.1,0.1,0.1c0.1,0.1,0.1,0.1,0.1,0.1
						c0.1,0.1,0.1,0.1,0.2,0.2c0.1,0.1,0.1,0.1,0.1,0.2c0.1,0.1,0.1,0.1,0.1,0.2c0.1,0.1,0.1,0.1,0.1,0.2c0.1,0.1,0.1,0.1,0.1,0.2
						c0.1,0.1,0.1,0.2,0.1,0.2c0.1,0.1,0.1,0.2,0.1,0.3c0,0.1,0.1,0.2,0.1,0.2c0.1,0.2,0.1,0.3,0.1,0.3c0,0.1,0,0.2,0,0.2
						c0,0.1,0,0.2,0,0.2c0,0.2,0,0.3,0,0.3c0,0.1,0,0.2,0,0.2c0,0.1,0,0.2,0,0.2c0,0.1,0,0.2,0,0.2c0,0.1,0,0.2,0,0.2
						c0,0.1,0,0.2,0,0.2c0,0.1,0,0.2-0.1,0.4c0,0.1,0,0.2,0,0.2c0,0.1,0,0.2-0.1,0.2c0,0.1-0.1,0.2-0.1,0.2c0,0.1-0.1,0.2-0.1,0.2
						L127,55.8z"/>
				</g>
				<g>
					<path class="st11" d="M164.7,77.6l1.4,1.7c0,0.1,0,0.1-0.1,0.2c-0.1,0.1-0.1,0.2-0.1,0.2c-0.1,0.1-0.1,0.2-0.1,0.2
						c-0.1,0.1-0.1,0.2-0.1,0.2l-1.4-1.7c0-0.1,0.1-0.1,0.1-0.2c0-0.1,0.1-0.1,0.1-0.2c0-0.1,0.1-0.1,0.1-0.2
						C164.7,77.7,164.7,77.7,164.7,77.6z"/>
				</g>
				<g>
					<path class="st11" d="M164.3,78.5l1.4,1.7c-0.1,0.1-0.1,0.2-0.2,0.2l-1.4-1.7C164.2,78.7,164.2,78.6,164.3,78.5z"/>
				</g>
				<g>
					<path class="st11" d="M164.1,78.7l1.4,1.7c-1.7,2.3-2.8,3.9-2.9,4l-1.4-1.7C161.3,82.6,162.5,81,164.1,78.7z"/>
				</g>
				<g>
					<path class="st12" d="M164.3,78.5c-0.1,0.1-0.1,0.2-0.2,0.2c-1.7,2.3-2.8,3.9-2.9,4l-41.9-24.2c0,0,0.2-0.2,0.5-0.7
						c1.7-2.3,5.5-3,7.2-2l37.8,21.8c0,0.1,0,0.1-0.1,0.2c-0.1,0.1-0.1,0.2-0.1,0.2c-0.1,0.1-0.1,0.2-0.1,0.2
						C164.4,78.4,164.3,78.4,164.3,78.5z"/>
				</g>
				<g>
					<polygon class="st12" points="161.2,82.7 162.7,84.4 120.8,60.2 119.3,58.5 					"/>
				</g>
			</g>
		</g>
	</g>
</g>
</svg>
