<?xml version="1.0" encoding="utf-8"?>
<!-- Generator: Adobe Illustrator 22.0.1, SVG Export Plug-In . SVG Version: 6.00 Build 0)  -->
<svg version="1.1" id="Layer_1" xmlns="http://www.w3.org/2000/svg" xmlns:xlink="http://www.w3.org/1999/xlink" x="0px" y="0px"
	 viewBox="0 0 100 100" style="enable-background:new 0 0 100 100;" xml:space="preserve">
<style type="text/css">
	.st0{fill:#EAC31C;}
	.st1{fill:#D4B21A;}
	.st2{fill:#BE931A;}
	.st3{fill:#FFF584;}
	.st4{fill:#00873E;}
	.st5{fill:#007B38;}
</style>
<g>
	<g>
		<g>
			<path class="st0" d="M88.5,40.5c-0.4-4.5-1.9-9-5.6-12c-3.8-3-11-2-11-2s-2.2-3-4.4-4.5c-5-3.6-15.6-2.9-19,1.9
				c-3.5-4.8-14-5.4-19-1.9c-2.1,1.5-4.4,4.5-4.4,4.5s-7.2-1-11,2c-3.7,3-5.3,7.4-5.6,12c-1.2,15.3,2.7,32.7,7.9,44.7
				c3.4,7.8,10.2,6.9,14,5.3c1.1,2.9,2.9,5.9,6,6.7c5.2,1.5,9.2-0.1,12.1,0v-0.1l0,0.1c2.9-0.1,6.9,1.5,12.1,0c3-0.8,4.9-3.8,6-6.7
				c3.8,1.6,10.6,2.6,14-5.3C85.8,73.2,89.7,55.7,88.5,40.5z"/>
		</g>
		<g>
			<path class="st1" d="M30.4,90.4c-4.9-24.7-5-47.9-1-54.5c2.7-4.5,1.2-7.4,1.2-7.4l0-1.1l-5.1-1.4c-0.2,0.3-0.4,0.5-0.4,0.5
				s-7.2-1-11,2c-3.7,3-5.3,7.4-5.6,11.9c-1.2,15.2,2.7,32.7,7.9,44.7C19.7,93,26.5,92,30.4,90.4z"/>
		</g>
		<g>
			<path class="st2" d="M82.9,28.6c-3.8-3-11-2-11-2s-2.2-3-4.4-4.5c-5-3.6-15.6-2.9-19,1.9c-3.5-4.8-14-5.4-19-1.9
				c-2.1,1.5-4.4,4.5-4.4,4.5s-7.2-1-11,2c-0.2,0.2-0.4,0.4-0.6,0.6c3.8-0.6,9.7,1.2,15.9,6.8c0,0,4.2-6.1,14.6-2.7
				c2.8,0.9,5.9,1.2,8.9,0.5c8.8-2.1,13.3,1.3,15.9,6.5c2.3,4.5,2.2,30.6-2.2,50.3c3.8,1.6,10.6,2.6,14-5.2
				c5.2-12,9.1-29.4,7.9-44.7C88.1,36,86.6,31.5,82.9,28.6z"/>
		</g>
	</g>
	<ellipse transform="matrix(0.7071 -0.7071 0.7071 0.7071 -21.1938 41.3917)" class="st3" cx="39.4" cy="46.3" rx="6.4" ry="6.4"/>
	<g>
		<path class="st4" d="M45.1,21.6c-0.4,6-2.7,9.4-4.1,10.9c1,0.2,2,0.4,3,0.8c2.8,0.9,5.9,1.2,8.9,0.5c1.1-0.3,2.1-0.4,3.1-0.5
			c-0.7-1.6-2.1-4.9-3.1-8.7c-0.3-1-0.5-2-0.6-2.9c-0.6-4.5,0.4-9,4.9-13.2C53.8-0.8,46.2,3,46.2,3s-1.7,4.3-1.1,14.8
			C45.2,19.1,45.2,20.4,45.1,21.6z"/>
	</g>
	<g>
		<path class="st5" d="M56.8,7.4c0-0.1-0.1-0.2-0.1-0.3c-0.1-0.2-0.2-0.4-0.3-0.6c0-0.1-0.1-0.2-0.2-0.3C56.1,6.1,56,6,55.9,5.8
			c-0.1-0.1-0.1-0.2-0.2-0.2c-0.1-0.2-0.2-0.3-0.3-0.5c0-0.1-0.1-0.1-0.1-0.2c-0.2-0.2-0.3-0.4-0.5-0.5c0,0-0.1-0.1-0.1-0.1
			c-0.1-0.1-0.3-0.3-0.4-0.4c-0.1-0.1-0.1-0.1-0.2-0.1c-0.1-0.1-0.2-0.2-0.3-0.3c-0.1,0-0.1-0.1-0.2-0.1c-0.1-0.1-0.2-0.2-0.4-0.2
			c0,0-0.1-0.1-0.1-0.1c-0.3-0.2-0.7-0.4-1-0.5c0,0-0.1,0-0.1,0c-0.1,0-0.3-0.1-0.4-0.1c0,0-0.1,0-0.1,0c-0.1,0-0.3-0.1-0.4-0.1
			c0,0-0.1,0-0.1,0c-0.2,0-0.3,0-0.5-0.1c0,0,0,0,0,0c-0.5,0-1,0-1.5,0l0,0c5,1.5,2,5.8,0.7,13.7c-0.4,2.3-0.5,4.6-0.4,6.7
			c0.1,4.4-1.8,8.4-4.7,10.7c2.7,0.8,5.6,1,8.3,0.3c1.1-0.3,2.1-0.4,3.1-0.5c0-0.1-0.1-0.2-0.1-0.3c-0.1-0.1-0.1-0.3-0.2-0.5
			c0-0.1-0.1-0.2-0.1-0.3c-0.1-0.2-0.2-0.4-0.2-0.6c-0.1-0.1-0.1-0.3-0.2-0.4c-0.1-0.2-0.2-0.4-0.3-0.7c-0.1-0.1-0.1-0.3-0.2-0.5
			c-0.1-0.2-0.2-0.5-0.3-0.7c-0.1-0.2-0.1-0.3-0.2-0.5c-0.1-0.3-0.2-0.5-0.3-0.8c-0.1-0.2-0.1-0.3-0.2-0.5c-0.1-0.3-0.2-0.6-0.3-1
			c0-0.2-0.1-0.3-0.1-0.5c-0.1-0.5-0.3-1-0.4-1.5c-0.3-1-0.5-2-0.6-2.9c-0.3-2.3-0.2-4.5,0.5-6.7c0.1-0.3,0.2-0.6,0.3-0.8
			c0.3-0.8,0.8-1.6,1.3-2.4c0.2-0.3,0.4-0.5,0.6-0.8c0.6-0.8,1.3-1.6,2.2-2.4C57,8,56.9,7.7,56.8,7.4z"/>
	</g>
</g>
</svg>
