<?xml version="1.0" encoding="utf-8"?>
<!-- Generator: Adobe Illustrator 22.0.1, SVG Export Plug-In . SVG Version: 6.00 Build 0)  -->
<svg version="1.1" id="Layer_1" xmlns="http://www.w3.org/2000/svg" xmlns:xlink="http://www.w3.org/1999/xlink" x="0px" y="0px"
	 viewBox="0 0 100 100" style="enable-background:new 0 0 100 100;" xml:space="preserve">
<style type="text/css">
	.st0{fill:#7B348C;}
	.st1{fill:#572262;}
	.st2{fill:#8F3894;}
	.st3{fill:#37B34A;}
	.st4{fill:#31A444;}
</style>
<g>
	<g>
		<g>
			<path class="st0" d="M48.1,94.3c-13,4-28.1,2.7-35.7-7.3c-0.3-0.4-0.6-0.8-0.9-1.3C5.2,76.2,9,63.4,17.8,56.9
				c7.5-5.6,17.3-7.4,26.1-10.1c5.7-1.8,17.8-5,23.7-23.3c1.4-4.4,6.4-10.8,14.8-8.1c4.4,1.4,8.7,5.1,8.3,13.2
				C89.1,63.9,71.5,87,48.1,94.3z"/>
		</g>
		<g>
			<path class="st1" d="M82.4,15.4c-1.3-0.4-2.5-0.6-3.6-0.6c3.5,1.9,7.1,6.6,5.6,17.7c-3.2,23.3-16.5,47.3-42.9,49.9
				c-17.4,1.7-28-5.2-31.8-14.5c-2.1,5.8-1.8,12.4,1.8,17.8c0.3,0.4,0.6,0.9,0.9,1.3c7.6,10,22.7,11.3,35.7,7.3
				c23.4-7.2,41-30.4,42.6-65.6C91.1,20.6,86.8,16.9,82.4,15.4z"/>
		</g>
		<g>
			<path class="st2" d="M27.2,58.6c-4.1,1.7-8.1,6.2-4.9,11.4c4.2,6.7,15.1,5.8,21.4,3.3c9.4-3.9,14.9-10.2,17.6-16.5
				c1.8-4.3,1.5-7.9-0.7-8.9c-3.5-1.5-7.1,1.4-10,3.1C41.5,56.5,33.1,56.2,27.2,58.6z"/>
		</g>
	</g>
	<path class="st3" d="M80.7,11.5c-6.1,0-9,2.4-11.1,5.9c-1.8,3-3.2,3.5-3.2,3.5s2.9,1.4,6.1-0.6c3.3-2,3.3-2,3.3-2s-0.8,1.4,0.4,4.4
		c1.3,3.1,0.5,5.2,0.5,5.2s8.6-2.6,6.4-8.4c0,0,1.4,1.7,4,2.2c2.6,0.5,4.4,3.2,4.4,3.2s0.1-3.8-1.7-7.3
		C88.1,14.2,85.4,11.5,80.7,11.5z"/>
	<path class="st4" d="M89.9,17.6c-1.8-3.4-4.5-6.1-9.2-6.1C81,7,78.6,3.7,78.6,3.7c-2.3-0.7-3.5,2.1-3.5,2.1c3.3,2,3.5,5.8,3.5,5.8
		c1,1.1,1.8,2.4,2,4c0.8,4.7-1.6,7.1-1.6,7.1s-2.8-1.4-3.2-4.4l-0.3,1.3c0,0.7,0.1,1.8,0.7,3.2c1.3,3.1,0.5,5.2,0.5,5.2
		s8.6-2.6,6.4-8.4c0,0,1.4,1.7,4,2.2c2.6,0.5,4.4,3.2,4.4,3.2S91.7,21.1,89.9,17.6z"/>
</g>
</svg>
