<?xml version="1.0" encoding="utf-8"?>
<!-- Generator: Adobe Illustrator 22.0.1, SVG Export Plug-In . SVG Version: 6.00 Build 0)  -->
<svg version="1.1" id="Layer_1" xmlns="http://www.w3.org/2000/svg" xmlns:xlink="http://www.w3.org/1999/xlink" x="0px" y="0px"
	 viewBox="0 0 100 100" style="enable-background:new 0 0 100 100;" xml:space="preserve">
<style type="text/css">
	.st0{fill:#CF2C6D;}
	.st1{fill:#90BD59;}
	.st2{fill:#FFF7E5;}
	.st3{fill:#FFFFFF;}
	.st4{fill:#1D161D;}
</style>
<g>
	<g>
		<polygon class="st0" points="10.4,37.1 7.8,51.2 3.1,34.5 		"/>
		<polygon class="st0" points="89.6,40.4 92.2,54.4 96.9,37.7 		"/>
		<polygon class="st0" points="88.5,71.4 80.5,83.3 95.6,74.6 		"/>
		<polygon class="st0" points="11.8,73.9 21.5,84.4 5.4,78.2 		"/>
		<polygon class="st1" points="42.4,12.3 40.8,2.8 48.7,11.5 		"/>
		<polygon class="st1" points="59.7,13 62.9,3.1 53.5,13.1 		"/>
		<path class="st0" d="M92.9,54.1c0,23.8-19.3,43.1-43.1,43.1C26,97.2,6.7,77.9,6.7,54.1c0-23.8,19.3-43.1,43.1-43.1
			C73.6,11.1,92.9,30.3,92.9,54.1z"/>
		<path class="st2" d="M90.1,54.1c0,22.2-18,40.3-40.3,40.3c-22.2,0-40.3-18-40.3-40.3c0-22.2,18-40.3,40.3-40.3
			C72,13.9,90.1,31.9,90.1,54.1z"/>
		<path class="st3" d="M77.7,48.4C77.7,63.1,65.8,75,51.1,75S24.5,63.1,24.5,48.4s11.9-26.6,26.6-26.6S77.7,33.7,77.7,48.4z"/>
	</g>
	<path class="st4" d="M51.6,28c0,0.7-0.6,1.3-1.3,1.3c-0.7,0-1.3-0.6-1.3-1.3c0-0.7,0.6-1.3,1.3-1.3C51,26.8,51.6,27.3,51.6,28z"/>
	<path class="st4" d="M41.6,37.1c0,0.7-0.6,1.3-1.3,1.3c-0.7,0-1.3-0.6-1.3-1.3c0-0.7,0.6-1.3,1.3-1.3C41,35.9,41.6,36.4,41.6,37.1z
		"/>
	<path class="st4" d="M63.3,37.4c0,0.7-0.6,1.3-1.3,1.3c-0.7,0-1.3-0.6-1.3-1.3c0-0.7,0.6-1.3,1.3-1.3
		C62.7,36.1,63.3,36.7,63.3,37.4z"/>
	<path class="st4" d="M51,48c0,0.7-0.6,1.3-1.3,1.3c-0.7,0-1.3-0.6-1.3-1.3c0-0.7,0.6-1.3,1.3-1.3C50.4,46.7,51,47.3,51,48z"/>
	<path class="st4" d="M34.3,48.8c0,0.7-0.6,1.3-1.3,1.3c-0.7,0-1.3-0.6-1.3-1.3c0-0.7,0.6-1.3,1.3-1.3
		C33.7,47.6,34.3,48.1,34.3,48.8z"/>
	<path class="st4" d="M68.9,50.6c0,0.7-0.6,1.3-1.3,1.3c-0.7,0-1.3-0.6-1.3-1.3s0.6-1.3,1.3-1.3C68.3,49.3,68.9,49.9,68.9,50.6z"/>
	<path class="st4" d="M52.2,62c0,0.7-0.6,1.3-1.3,1.3s-1.3-0.6-1.3-1.3c0-0.7,0.6-1.3,1.3-1.3S52.2,61.3,52.2,62z"/>
	<path class="st4" d="M37.5,64.1c0,0.7-0.6,1.3-1.3,1.3c-0.7,0-1.3-0.6-1.3-1.3c0-0.7,0.6-1.3,1.3-1.3
		C36.9,62.8,37.5,63.4,37.5,64.1z"/>
	<path class="st4" d="M67.4,65.3c0,0.7-0.6,1.3-1.3,1.3c-0.7,0-1.3-0.6-1.3-1.3c0-0.7,0.6-1.3,1.3-1.3C66.8,64,67.4,64.6,67.4,65.3z
		"/>
	<path class="st4" d="M52.2,77c0,0.7-0.6,1.3-1.3,1.3s-1.3-0.6-1.3-1.3c0-0.7,0.6-1.3,1.3-1.3S52.2,76.3,52.2,77z"/>
	<path class="st4" d="M34.3,77.3c0,0.7-0.6,1.3-1.3,1.3c-0.7,0-1.3-0.6-1.3-1.3c0-0.7,0.6-1.3,1.3-1.3C33.7,76,34.3,76.6,34.3,77.3z
		"/>
	<path class="st4" d="M70.3,77.9c0,0.7-0.6,1.3-1.3,1.3c-0.7,0-1.3-0.6-1.3-1.3c0-0.7,0.6-1.3,1.3-1.3
		C69.8,76.6,70.3,77.2,70.3,77.9z"/>
	<path class="st4" d="M81.2,59.1c0,0.7-0.6,1.3-1.3,1.3c-0.7,0-1.3-0.6-1.3-1.3c0-0.7,0.6-1.3,1.3-1.3
		C80.6,57.8,81.2,58.4,81.2,59.1z"/>
	<path class="st4" d="M20.5,55.9c0,0.7-0.6,1.3-1.3,1.3c-0.7,0-1.3-0.6-1.3-1.3c0-0.7,0.6-1.3,1.3-1.3
		C19.9,54.6,20.5,55.2,20.5,55.9z"/>
	<path class="st4" d="M25.5,36.5c0,0.7-0.6,1.3-1.3,1.3c-0.7,0-1.3-0.6-1.3-1.3c0-0.7,0.6-1.3,1.3-1.3
		C24.9,35.3,25.5,35.8,25.5,36.5z"/>
	<path class="st4" d="M78.2,40.9c0,0.7-0.6,1.3-1.3,1.3c-0.7,0-1.3-0.6-1.3-1.3c0-0.7,0.6-1.3,1.3-1.3
		C77.7,39.7,78.2,40.2,78.2,40.9z"/>
	<path class="st4" d="M70,27.5c0,0.7-0.6,1.3-1.3,1.3c-0.7,0-1.3-0.6-1.3-1.3c0-0.7,0.6-1.3,1.3-1.3C69.5,26.2,70,26.8,70,27.5z"/>
	<path class="st4" d="M34.9,25.7c0,0.7-0.6,1.3-1.3,1.3c-0.7,0-1.3-0.6-1.3-1.3c0-0.7,0.6-1.3,1.3-1.3C34.3,24.4,34.9,25,34.9,25.7z
		"/>
	<path class="st4" d="M51.9,18.7c0,0.7-0.6,1.3-1.3,1.3c-0.7,0-1.3-0.6-1.3-1.3c0-0.7,0.6-1.3,1.3-1.3C51.3,17.4,51.9,18,51.9,18.7z
		"/>
	<path class="st4" d="M50.7,89.3c0,0.7-0.6,1.3-1.3,1.3c-0.7,0-1.3-0.6-1.3-1.3c0-0.7,0.6-1.3,1.3-1.3C50.1,88,50.7,88.6,50.7,89.3z
		"/>
	<path class="st4" d="M20.8,70c0,0.7-0.6,1.3-1.3,1.3c-0.7,0-1.3-0.6-1.3-1.3c0-0.7,0.6-1.3,1.3-1.3C20.2,68.7,20.8,69.2,20.8,70z"
		/>
	<path class="st4" d="M82.3,71.1c0,0.7-0.6,1.3-1.3,1.3c-0.7,0-1.3-0.6-1.3-1.3c0-0.7,0.6-1.3,1.3-1.3
		C81.8,69.8,82.3,70.4,82.3,71.1z"/>
</g>
</svg>
