<?xml version="1.0" encoding="utf-8"?>
<!-- Generator: Adobe Illustrator 22.0.1, SVG Export Plug-In . SVG Version: 6.00 Build 0)  -->
<svg version="1.1" id="Layer_1" xmlns="http://www.w3.org/2000/svg" xmlns:xlink="http://www.w3.org/1999/xlink" x="0px" y="0px"
	 viewBox="0 0 100 100" style="enable-background:new 0 0 100 100;" xml:space="preserve">
<style type="text/css">
	.st0{fill:#683C11;}
	.st1{fill:#789B0D;}
	.st2{fill:#95C11F;}
	.st3{fill:#E6332A;}
	.st4{fill:#FF4C48;}
	.st5{fill:#CE1915;}
</style>
<g>
	<g>
		<path class="st0" d="M54.3,7.7c-4.7,5-7.9,17.2-5,23.6c1.6-7.9,4.3-14,9.7-18.6c-1.4-1.5-3-3.4-4.4-4.6L54.3,7.7z"/>
		<g>
			<path class="st1" d="M25.9,9.4C25.9,9.4,25.9,9.4,25.9,9.4L26,9.6c5.1,10.4,13.4,16.3,25,9.8C48,7.7,36.5,5.9,25.9,9.4z"/>
			<g>
				<path class="st2" d="M25.9,9.4c8,1.1,17.6,4.1,25.1,10C48,7.7,36.5,5.9,25.9,9.4z"/>
			</g>
		</g>
		<path class="st3" d="M54.2,28.5c-2.5,1.2-4,1.8-7,1.2c-2.1-0.4-6.1-1.7-6.9-2.1l-1.5-0.6C26.3,22.1,8.4,33.3,9.7,48.7
			c0.7,8.2,2.8,12.8,6.4,20c3.5,7.2,10,15.4,16.3,20c3.6,2.7,5.3,3.5,9.4,3c3.3-0.5,6.3-1.5,9.9-1.4c6.9,0.3,12.3,4.5,18.5-0.3
			c5.8-4.5,10.1-10.9,13-17.6c3.1-7.1,4.3-9.9,6.3-17.4c3.4-13.1-3.1-29-16.8-29.8C65.1,24.6,61,25.3,54.2,28.5z"/>
		<path class="st4" d="M23.7,34.4c-3,1.8-4.5,4.8-3.4,6.7c1.1,1.9,4.5,2.1,7.5,0.3c3-1.8,4.5-4.8,3.4-6.7
			C30.1,32.8,26.7,32.6,23.7,34.4z"/>
		<path class="st4" d="M15.5,45.9c0,1.4,1.1,2.5,2.5,2.5c1.4,0,2.5-1.1,2.5-2.5c0-1.4-1.1-2.5-2.5-2.5
			C16.6,43.3,15.5,44.5,15.5,45.9z"/>
		<g>
			<path class="st5" d="M72.5,25.1c6.4,4.5,10.3,11.4,8.8,24.6C79.5,64,73.6,82.1,63.8,92.3c2.1,0,4.2-0.6,6.4-2.3
				c5.8-4.5,10.1-10.9,13-17.6c3.1-7.1,4.3-9.9,6.3-17.4c3.4-13.1-3.1-29-16.8-29.8C72.6,25.1,72.5,25.1,72.5,25.1z"/>
		</g>
	</g>
</g>
</svg>
