<svg xmlns="http://www.w3.org/2000/svg" viewBox="0 0 347.5 118.8"><defs><style>.cls-1{fill:#fff;}.cls-2{fill:#00c063;}</style></defs><title>Asset 1</title><g id="Layer_2" data-name="Layer 2"><g id="Layer_1-2" data-name="Layer 1"><path class="cls-1" d="M69.3,116.33a2.47,2.47,0,0,0,2.47,2.47H96.52a2.47,2.47,0,1,0,0-4.95H71.77A2.47,2.47,0,0,0,69.3,116.33Z"/><path class="cls-1" d="M116.33,108.9A27.23,27.23,0,1,0,89.1,81.68,27.26,27.26,0,0,0,116.33,108.9Zm0-5A22.27,22.27,0,1,1,138.6,81.68,22.3,22.3,0,0,1,116.32,104Z"/><path class="cls-1" d="M108.9,116.33a2.47,2.47,0,0,0,2.47,2.47H146a2.47,2.47,0,1,0,0-4.95H111.38A2.47,2.47,0,0,0,108.9,116.33Z"/><path class="cls-2" d="M150.6,74.33a2.92,2.92,0,0,0,2.92,2.92h41a2.92,2.92,0,1,0,0-5.85H153.53A2.92,2.92,0,0,0,150.6,74.33Z"/><path class="cls-1" d="M150.6,74.33a2.92,2.92,0,0,0,2.92,2.92H174V71.4H153.53A2.92,2.92,0,0,0,150.6,74.33Z"/><path class="cls-1" d="M116.25,84.15a2.47,2.47,0,0,0,0-4.95h0a2.47,2.47,0,1,0,0,4.95Z"/><path class="cls-1" d="M116.33,94.05A12.38,12.38,0,1,0,104,81.68,12.39,12.39,0,0,0,116.33,94.05Zm0-5a7.43,7.43,0,1,1,7.43-7.43A7.43,7.43,0,0,1,116.32,89.1Z"/><path class="cls-1" d="M44.55,91.58A17.32,17.32,0,1,0,27.22,108.9,17.35,17.35,0,0,0,44.55,91.58Zm-4.95,0A12.38,12.38,0,1,1,27.22,79.2,12.39,12.39,0,0,1,39.6,91.58Z"/><path class="cls-1" d="M34.65,91.58A7.43,7.43,0,1,0,27.22,99,7.43,7.43,0,0,0,34.65,91.58Zm-5,0a2.47,2.47,0,1,1-2.47-2.47A2.48,2.48,0,0,1,29.7,91.58Z"/><path class="cls-2" d="M230.16,97.16A13.85,13.85,0,1,0,216.31,111,13.86,13.86,0,0,0,230.16,97.16Zm-4,0a9.89,9.89,0,1,1-9.89-9.89A9.9,9.9,0,0,1,226.2,97.16Z"/><path class="cls-2" d="M222.25,97.16a5.93,5.93,0,1,0-5.93,5.93A5.94,5.94,0,0,0,222.25,97.16Zm-4,0a2,2,0,1,1-2-2A2,2,0,0,1,218.29,97.16Z"/><path class="cls-2" d="M342,98A13.85,13.85,0,1,0,328.2,111.8,13.86,13.86,0,0,0,342,98Zm-4,0a9.89,9.89,0,1,1-9.89-9.89A9.9,9.9,0,0,1,338.09,98Z"/><path class="cls-2" d="M334.13,98a5.93,5.93,0,1,0-5.93,5.93A5.94,5.94,0,0,0,334.13,98Zm-4,0a2,2,0,1,1-2-2A2,2,0,0,1,330.18,98Z"/><path class="cls-1" d="M0,56.93V91.58a2.47,2.47,0,0,0,4.95,0V69.3H27.23a2.47,2.47,0,0,0,0-4.95H5v-5H27.23a2.47,2.47,0,0,0,0-4.95H5.3c.86-3.09,3.39-5,7.07-5h79.2A2.48,2.48,0,0,0,94,47.56L103.46,5h10.72l4.65,32.53a2.48,2.48,0,1,0,4.9-.7l-5-34.65A2.47,2.47,0,0,0,116.32,0H66.83a2.47,2.47,0,0,0-2.35,1.69L50.19,44.55H24.75V32.18a2.47,2.47,0,1,0-4.95,0V44.55H12.37C5.09,44.55,0,49.64,0,56.93ZM65.3,44.55H55.41L68.61,5H98.39l-8.8,39.6H70.83L66.56,36a2.47,2.47,0,1,0-4.43,2.21l3.16,6.32Z"/><path class="cls-1" d="M0,116.33a2.47,2.47,0,0,0,2.47,2.47h39.6a2.47,2.47,0,1,0,0-4.95H2.47A2.47,2.47,0,0,0,0,116.33Z"/><path class="cls-1" d="M49.5,116.33A2.47,2.47,0,0,0,52,118.8h5a2.47,2.47,0,1,0,0-4.95H52A2.47,2.47,0,0,0,49.5,116.33Z"/><path class="cls-2" d="M268.3,116.33a2.47,2.47,0,0,0,2.47,2.47h24.75a2.47,2.47,0,1,0,0-4.95H270.77A2.47,2.47,0,0,0,268.3,116.33Z"/><path class="cls-2" d="M307.9,116.33a2.47,2.47,0,0,0,2.47,2.47H345a2.47,2.47,0,1,0,0-4.95H310.38A2.47,2.47,0,0,0,307.9,116.33Z"/><path class="cls-2" d="M199,116.33a2.47,2.47,0,0,0,2.47,2.47h39.6a2.47,2.47,0,1,0,0-4.95h-39.6A2.47,2.47,0,0,0,199,116.33Z"/><path class="cls-2" d="M248.5,116.33A2.47,2.47,0,0,0,251,118.8h5a2.47,2.47,0,1,0,0-4.95h-5A2.47,2.47,0,0,0,248.5,116.33Z"/><path class="cls-1" d="M49.5,56.93V91.57A2.47,2.47,0,0,0,52,94h29.7a2.47,2.47,0,0,0,2.47-2.47v-9.9A32.18,32.18,0,0,1,143.91,65.1a2.47,2.47,0,1,0,4.24-2.56A37.13,37.13,0,0,0,79.2,81.68V89.1H54.45V56.93a2.47,2.47,0,0,0-4.95,0Z"/><rect class="cls-2" x="246.34" y="98.15" width="52.35" height="2.95" rx="1.47" ry="1.47"/><rect class="cls-2" x="246.34" y="92.85" width="52.35" height="2.95" rx="1.47" ry="1.47"/><rect class="cls-2" x="246.34" y="87.4" width="52.35" height="2.95" rx="1.47" ry="1.47"/><path class="cls-2" d="M340,19.87h-.57a1.19,1.19,0,0,0-1,.49L337.28,22a1.19,1.19,0,0,0-.23.7V54.45a1.19,1.19,0,0,1-1.19,1.19H203.8a1.19,1.19,0,0,0-1.19,1.19V79.44a1.19,1.19,0,0,0,1.19,1.19H341.21a1.19,1.19,0,0,0,1.19-1.19V22.72a1.19,1.19,0,0,0-.23-.7L341,20.36A1.19,1.19,0,0,0,340,19.87ZM231.46,76.25h-1.19a1.19,1.19,0,0,1-1.19-1.19V61.21A1.19,1.19,0,0,1,230.28,60h0a1.19,1.19,0,0,1,1.19,1.19v15Zm41,0h0a1.19,1.19,0,0,1-1.19-1.19V61.21A1.19,1.19,0,0,1,272.51,60h0a1.19,1.19,0,0,1,1.19,1.19V75.06A1.19,1.19,0,0,1,272.51,76.25Zm42.24,0h0a1.19,1.19,0,0,1-1.19-1.19V61.21A1.19,1.19,0,0,1,314.74,60h0a1.19,1.19,0,0,1,1.19,1.19V75.06A1.19,1.19,0,0,1,314.74,76.25Z"/></g></g></svg>