<?xml version="1.0" encoding="utf-8"?>
<!-- Generator: Adobe Illustrator 21.1.0, SVG Export Plug-In . SVG Version: 6.00 Build 0)  -->
<svg version="1.1" id="Layer_1" xmlns="http://www.w3.org/2000/svg" xmlns:xlink="http://www.w3.org/1999/xlink" x="0px" y="0px"
	 viewBox="0 0 150 250" style="enable-background:new 0 0 150 250;" xml:space="preserve">
<style type="text/css">
	.st0{fill:#00C063;}
</style>
<g transform="translate(1 1)">
	<g>
		<path class="st0" d="M137.7,219.6h-37.3l-19.5-35.8H82c2.4,0,4-1.6,4-4v-19.9c0-2.4-1.6-4-4-4h-4V45.9l10.8-10.8
			c0.8-0.8,1.2-1.6,1.2-2.8V8.5c0-2.4-1.6-4-4-4H62.1c-2.4,0-4,1.6-4,4v23.9c0,1.2,0.4,2,1.2,2.8L70,45.9v109.9h-4c-2.4,0-4,1.6-4,4
			v19.9c0,2.4,1.6,4,4,4h1.1l-19.5,35.8H10.3c-2.4,0-4,1.6-4,4v15.9c0,2.4,1.6,4,4,4s4-1.6,4-4v-11.9h8v11.9c0,2.4,1.6,4,4,4
			s4-1.6,4-4v-11.9h8v11.9c0,2.4,1.6,4,4,4c2.4,0,4-1.6,4-4v-11.9h8v11.9c0,2.4,1.6,4,4,4c2.4,0,4-1.6,4-4v-11.9h8v11.9
			c0,2.4,1.6,4,4,4c2.4,0,4-1.6,4-4v-11.9h8v11.9c0,2.4,1.6,4,4,4s4-1.6,4-4v-11.9h8v11.9c0,2.4,1.6,4,4,4s4-1.6,4-4v-11.9h8v11.9
			c0,2.4,1.6,4,4,4s4-1.6,4-4v-11.9h8v11.9c0,2.4,1.6,4,4,4c2.4,0,4-1.6,4-4v-15.9C141.7,221.2,140.1,219.6,137.7,219.6z M66,12.5
			H82v18.3l-8,8l-8-8V12.5z M70,163.8h8v11.9h-2.9c0,0-0.1,0-0.1,0c-0.1,0-0.2,0-0.2-0.1c0,0-0.1,0-0.1,0c-0.1,0-0.2,0-0.2,0
			c-0.1,0-0.1,0-0.2,0c-0.1,0-0.1,0-0.2,0c-0.1,0-0.1,0-0.2,0c-0.1,0-0.1,0-0.2,0c-0.1,0-0.2,0-0.2,0c0,0-0.1,0-0.1,0
			c-0.1,0-0.2,0-0.2,0.1c0,0-0.1,0-0.1,0H70L70,163.8L70,163.8z M56.9,219.6l13.1-24v24H56.9z M78,195.6l13.1,24H78V195.6z"/>
	</g>
</g>
</svg>
