<svg xmlns="http://www.w3.org/2000/svg" viewBox="0 0 512 506.8"><defs><style>.cls-1{fill:#00ca43;}.cls-2{fill:#00c063;}.cls-3{fill:#b0e046;}.cls-4{fill:#a4c93d;}.cls-5{fill:#975d50;}.cls-6{fill:#7f443b;}</style></defs><title>Asset 4</title><g id="Layer_2" data-name="Layer 2"><g id="Layer_1-2" data-name="Layer 1"><path class="cls-1" d="M396,145.74a127.08,127.08,0,0,0-15-2.1c-61-5-109.13,51.44-94.57,110.84A113.1,113.1,0,0,0,292,271.56a113.18,113.18,0,0,0,17.72,2.72c61,5,109.13-51.44,94.57-110.84A127.24,127.24,0,0,0,399.81,149,5.15,5.15,0,0,0,396,145.74Z"/><path class="cls-2" d="M309.68,274.28A113,113,0,0,1,292,271.56a103.11,103.11,0,0,1-4.09-11.85c1.67.2,3.46.4,5.38.55,61,5,109.12-51.44,94.57-110.84-.45-1.87-.93-3.62-1.39-5.23,4.17.51,7.47,1.12,9.6,1.55a5.14,5.14,0,0,1,3.78,3.2,126.7,126.7,0,0,1,4.45,14.49C418.81,222.84,370.63,279.3,309.68,274.28Z"/><path class="cls-1" d="M115.73,145.74a127.08,127.08,0,0,1,15-2.1c61-5,109.13,51.44,94.57,110.84a113.1,113.1,0,0,1-5.48,17.07,113.18,113.18,0,0,1-17.72,2.72c-61,5-109.13-51.44-94.57-110.84A127.24,127.24,0,0,1,111.95,149,5.14,5.14,0,0,1,115.73,145.74Z"/><path class="cls-2" d="M202.08,274.28a113,113,0,0,0,17.73-2.73,103.11,103.11,0,0,0,4.09-11.85c-1.66.2-3.46.4-5.38.55-61,5-109.12-51.44-94.57-110.84.46-1.87.93-3.62,1.39-5.23-4.18.51-7.47,1.12-9.6,1.55a5.14,5.14,0,0,0-3.78,3.2,126.91,126.91,0,0,0-4.45,14.49C93,222.84,141.13,279.3,202.08,274.28Z"/><path class="cls-2" d="M257.11,317.46a7.5,7.5,0,0,1-5.7-12.38l54.51-63.77a7.5,7.5,0,0,1,11.41,9.75l-54.51,63.77A7.49,7.49,0,0,1,257.11,317.46Z"/><path class="cls-2" d="M254.11,317.46a7.49,7.49,0,0,1-5.71-2.63l-54.51-63.77a7.5,7.5,0,0,1,11.41-9.75l54.51,63.77a7.5,7.5,0,0,1-5.7,12.38Z"/><path class="cls-2" d="M255.06,370.3a7.5,7.5,0,0,1-7.5-7.5V106.3a7.5,7.5,0,1,1,15,0V362.79A7.51,7.51,0,0,1,255.06,370.3Z"/><path class="cls-3" d="M252.57.64a127.27,127.27,0,0,0-12.76,8.13c-49.63,35.74-49.63,110,0,145.7a113.11,113.11,0,0,0,15.25,9.43,113.11,113.11,0,0,0,15.25-9.43c49.64-35.74,49.64-110,0-145.7A127.09,127.09,0,0,0,257.54.64,5.14,5.14,0,0,0,252.57.64Z"/><path class="cls-4" d="M270.31,154.47a113,113,0,0,1-15.25,9.43,103.38,103.38,0,0,1-10.8-6.36c1.4-.93,2.89-1.94,4.45-3.07,49.63-35.74,49.63-110,0-145.7-1.56-1.13-3.05-2.15-4.45-3.07,3.51-2.32,6.41-4,8.31-5a5.14,5.14,0,0,1,4.95,0,126.76,126.76,0,0,1,12.79,8.14C319.94,44.51,319.94,118.73,270.31,154.47Z"/><path class="cls-5" d="M416.1,410.9a95.43,95.43,0,0,0-52.36,15.57,130,130,0,0,0-238.38-10.94A95.92,95.92,0,0,0,0,506.8H512A95.9,95.9,0,0,0,416.1,410.9Z"/><path class="cls-6" d="M512,506.8H493a95.94,95.94,0,0,0-91.85-68.25c-1.09,0-2.18,0-3.27.05s-2.06-.05-3.1-.05a95.46,95.46,0,0,0-44.77,11.09,2.59,2.59,0,0,1-3.57-1.24,130,130,0,0,0-119.21-78.11c-1.06,0-2.11,0-3.16,0s-2.14,0-3.21,0A129.53,129.53,0,0,0,129.39,408a130,130,0,0,1,234.34,18.51A95.88,95.88,0,0,1,512,506.8Z"/><circle class="cls-6" cx="108.57" cy="434.35" r="8.59"/><circle class="cls-6" cx="316.7" cy="456.97" r="8.59"/><circle class="cls-6" cx="290.29" cy="428.91" r="8.59"/></g></g></svg>