<?xml version="1.0" encoding="utf-8"?>
<!-- Generator: Adobe Illustrator 21.1.0, SVG Export Plug-In . SVG Version: 6.00 Build 0)  -->
<svg version="1.1" id="Layer_1" xmlns="http://www.w3.org/2000/svg" xmlns:xlink="http://www.w3.org/1999/xlink" x="0px" y="0px"
	 viewBox="0 0 202 171.2" style="enable-background:new 0 0 202 171.2;" xml:space="preserve">
<style type="text/css">
	.st0{fill:#CF2C6D;}
	.st1{fill:#90BD59;}
	.st2{fill:#FFF7E5;}
	.st3{fill:#FFFFFF;}
	.st4{fill:#1D161D;}
</style>
<g>
	<g>
		<polygon class="st0" points="54.7,70.5 51.6,87 46.2,67.4 		"/>
		<polygon class="st0" points="147.3,74.3 150.4,90.8 155.8,71.2 		"/>
		<polygon class="st0" points="146,110.6 136.7,124.5 154.3,114.4 		"/>
		<polygon class="st0" points="56.4,113.5 67.7,125.8 48.8,118.5 		"/>
		<polygon class="st1" points="92.1,41.5 90.2,30.4 99.4,40.6 		"/>
		<polygon class="st1" points="112.3,42.3 116.1,30.8 105.1,42.4 		"/>
		<circle class="st0" cx="100.8" cy="90.4" r="50.4"/>
		<circle class="st2" cx="100.8" cy="90.4" r="47.1"/>
		<circle class="st3" cx="102.3" cy="83.7" r="31.1"/>
	</g>
	<circle class="st4" cx="101.3" cy="59.9" r="1.5"/>
	<circle class="st4" cx="89.7" cy="70.5" r="1.5"/>
	<circle class="st4" cx="115.1" cy="70.9" r="1.5"/>
	<circle class="st4" cx="100.7" cy="83.2" r="1.5"/>
	<circle class="st4" cx="81.1" cy="84.2" r="1.5"/>
	<circle class="st4" cx="121.6" cy="86.3" r="1.5"/>
	<circle class="st4" cx="102" cy="99.7" r="1.5"/>
	<circle class="st4" cx="84.9" cy="102.1" r="1.5"/>
	<circle class="st4" cx="119.9" cy="103.4" r="1.5"/>
	<circle class="st4" cx="102" cy="117.1" r="1.5"/>
	<circle class="st4" cx="81.1" cy="117.5" r="1.5"/>
	<circle class="st4" cx="123.3" cy="118.2" r="1.5"/>
	<circle class="st4" cx="136" cy="96.2" r="1.5"/>
	<circle class="st4" cx="65" cy="92.5" r="1.5"/>
	<circle class="st4" cx="70.8" cy="69.8" r="1.5"/>
	<circle class="st4" cx="132.5" cy="75" r="1.5"/>
	<circle class="st4" cx="122.9" cy="59.2" r="1.5"/>
	<circle class="st4" cx="81.8" cy="57.2" r="1.5"/>
	<circle class="st4" cx="101.7" cy="48.9" r="1.5"/>
	<circle class="st4" cx="100.3" cy="131.5" r="1.5"/>
	<circle class="st4" cx="65.4" cy="108.9" r="1.5"/>
	<circle class="st4" cx="137.3" cy="110.3" r="1.5"/>
</g>
</svg>
