<?xml version="1.0" encoding="utf-8"?>
<!-- Generator: Adobe Illustrator 21.1.0, SVG Export Plug-In . SVG Version: 6.00 Build 0)  -->
<svg version="1.1" id="Layer_1" xmlns="http://www.w3.org/2000/svg" xmlns:xlink="http://www.w3.org/1999/xlink" x="0px" y="0px"
	 viewBox="0 0 202 171.2" style="enable-background:new 0 0 202 171.2;" xml:space="preserve">
<style type="text/css">
	.st0{fill:#EAC31C;}
	.st1{fill:#D4B21A;}
	.st2{fill:#BE931A;}
	.st3{fill:#FFF584;}
	.st4{fill:#00873E;}
	.st5{fill:#007B38;}
</style>
<g>
	<g>
		<g>
			<path class="st0" d="M149.6,74c-0.4-5.5-2.3-10.9-6.8-14.5c-4.6-3.7-13.4-2.4-13.4-2.4s-2.7-3.6-5.3-5.5
				c-6.1-4.3-18.9-3.6-23.1,2.3c-4.2-5.8-17-6.6-23.1-2.3c-2.6,1.9-5.3,5.5-5.3,5.5s-8.8-1.3-13.4,2.4c-4.5,3.6-6.4,9-6.8,14.5
				c-1.5,18.5,3.3,39.7,9.6,54.3c4.1,9.5,12.4,8.3,17,6.4c1.3,3.6,3.6,7.2,7.2,8.2c6.3,1.8,11.2-0.2,14.7,0v-0.1l0,0.1
				c3.6-0.2,8.4,1.8,14.7,0c3.7-1,5.9-4.6,7.2-8.2c4.7,1.9,12.9,3.1,17-6.4C146.3,113.8,151.1,92.5,149.6,74z"/>
		</g>
		<g>
			<path class="st1" d="M79,134.7c-5.9-30-6.1-58.1-1.2-66.1c3.3-5.4,1.4-8.9,1.4-8.9l0-1.3l-6.2-1.7c-0.3,0.4-0.5,0.6-0.5,0.6
				s-8.8-1.3-13.4,2.4c-4.5,3.6-6.4,9-6.8,14.5c-1.5,18.5,3.3,39.7,9.6,54.2C66.1,137.8,74.4,136.6,79,134.7z"/>
		</g>
		<g>
			<path class="st2" d="M142.8,59.6c-4.6-3.7-13.4-2.4-13.4-2.4s-2.7-3.6-5.3-5.5c-6.1-4.3-18.9-3.6-23.1,2.3
				c-4.2-5.8-17-6.6-23.1-2.3c-2.6,1.8-5.3,5.5-5.3,5.5s-8.8-1.3-13.4,2.4c-0.3,0.2-0.5,0.5-0.8,0.7c4.7-0.7,11.7,1.5,19.3,8.2
				c0,0,5.1-7.5,17.8-3.3c3.5,1.1,7.2,1.4,10.8,0.6c10.7-2.6,16.1,1.5,19.3,7.9c2.8,5.5,2.7,37.1-2.7,61c4.7,1.9,12.9,3.1,17-6.4
				c6.3-14.5,11.1-35.7,9.6-54.2C149.1,68.6,147.3,63.2,142.8,59.6z"/>
		</g>
	</g>
	<circle class="st3" cx="89.9" cy="81.1" r="7.7"/>
	<g>
		<path class="st4" d="M96.9,51.1c-0.5,7.3-3.3,11.4-5,13.2c1.2,0.2,2.4,0.5,3.7,0.9c3.5,1.1,7.2,1.4,10.8,0.6
			c1.3-0.3,2.5-0.5,3.7-0.6c-0.9-2-2.5-5.9-3.7-10.6c-0.3-1.2-0.6-2.4-0.7-3.6c-0.7-5.5,0.5-11,5.9-16c-4.1-11.1-13.2-6.5-13.2-6.5
			s-2.1,5.2-1.4,17.9C97,48.1,97,49.7,96.9,51.1z"/>
	</g>
	<g>
		<path class="st5" d="M111.1,33.9c0-0.1-0.1-0.2-0.2-0.3c-0.1-0.2-0.2-0.5-0.3-0.7c-0.1-0.1-0.1-0.2-0.2-0.3
			c-0.1-0.2-0.2-0.4-0.3-0.6c-0.1-0.1-0.1-0.2-0.2-0.3c-0.1-0.2-0.3-0.4-0.4-0.6c0-0.1-0.1-0.1-0.1-0.2c-0.2-0.2-0.4-0.5-0.6-0.7
			c0,0-0.1-0.1-0.1-0.1c-0.2-0.2-0.3-0.3-0.5-0.4c-0.1-0.1-0.1-0.1-0.2-0.2c-0.1-0.1-0.3-0.2-0.4-0.3c-0.1-0.1-0.1-0.1-0.2-0.2
			c-0.1-0.1-0.3-0.2-0.4-0.3c-0.1,0-0.1-0.1-0.2-0.1c-0.4-0.2-0.8-0.4-1.3-0.6c0,0-0.1,0-0.1,0c-0.2-0.1-0.3-0.1-0.5-0.2
			c-0.1,0-0.1,0-0.2,0c-0.2,0-0.3-0.1-0.5-0.1c0,0-0.1,0-0.1,0c-0.2,0-0.4-0.1-0.6-0.1c0,0,0,0,0,0c-0.6-0.1-1.3,0-1.8,0l0,0
			c6,1.8,2.4,7.1,0.8,16.7c-0.5,2.8-0.6,5.6-0.5,8.1c0.1,5.4-2.1,10.2-5.7,13c3.3,1,6.8,1.2,10.1,0.4c1.3-0.3,2.5-0.5,3.7-0.6
			c0-0.1-0.1-0.2-0.2-0.4c-0.1-0.2-0.2-0.3-0.2-0.6c-0.1-0.1-0.1-0.3-0.2-0.4c-0.1-0.2-0.2-0.5-0.3-0.7c-0.1-0.2-0.1-0.3-0.2-0.5
			c-0.1-0.3-0.2-0.5-0.3-0.8c-0.1-0.2-0.1-0.4-0.2-0.6c-0.1-0.3-0.2-0.6-0.3-0.9c-0.1-0.2-0.1-0.4-0.2-0.6c-0.1-0.3-0.2-0.7-0.3-1
			c-0.1-0.2-0.1-0.4-0.2-0.6c-0.1-0.4-0.2-0.8-0.4-1.2c-0.1-0.2-0.1-0.4-0.2-0.6c-0.2-0.6-0.4-1.2-0.5-1.8c-0.3-1.2-0.6-2.4-0.7-3.6
			c-0.4-2.8-0.3-5.5,0.6-8.2c0.1-0.3,0.2-0.7,0.4-1c0.4-1,0.9-2,1.6-3c0.2-0.3,0.4-0.6,0.7-1c0.7-1,1.6-1.9,2.6-2.9
			C111.4,34.6,111.2,34.3,111.1,33.9z"/>
	</g>
</g>
</svg>
