<?xml version="1.0" encoding="utf-8"?>
<!-- Generator: Adobe Illustrator 21.1.0, SVG Export Plug-In . SVG Version: 6.00 Build 0)  -->
<svg version="1.1" id="Layer_1" xmlns="http://www.w3.org/2000/svg" xmlns:xlink="http://www.w3.org/1999/xlink" x="0px" y="0px"
	 viewBox="0 0 278 208" style="enable-background:new 0 0 278 208;" xml:space="preserve">
<style type="text/css">
	.st0{fill:none;}
	.st1{opacity:0.15;fill:url(#SVGID_1_);}
	.st2{enable-background:new    ;}
	.st3{fill:#93C1CF;}
	.st4{fill:#DEDCD9;}
	.st5{fill:#47475E;}
</style>
<g>
	<g>
		<g>
			<g>
				<g>
					<polygon class="st0" points="67.8,129.5 67.9,129.5 67.9,129.4 67.9,129.3 67.8,129.3 					"/>
					<path class="st0" d="M102.7,109L102.7,109L102.7,109C102.7,109,102.7,109,102.7,109C102.7,109,102.7,109,102.7,109l0,0.2h0v0
						c0,0,0,0,0,0c0,0,0,0,0,0V109z"/>
					<polygon class="st0" points="68.2,130 68.2,130.1 68.3,130.1 68.3,130.1 68.3,130 68.2,130 					"/>
				</g>
				<g>
					<g>
						<g>
							<g>
								<g>
									<g>
										<g>
											<polygon class="st0" points="67.2,129.4 67.3,129.4 67.3,129.4 67.3,129.2 67.2,129.2 											"/>
											<path class="st0" d="M102.4,108.9L102.4,108.9L102.4,108.9C102.4,108.9,102.4,108.9,102.4,108.9
												C102.4,108.9,102.4,108.9,102.4,108.9l0,0.2h0v0c0,0,0,0,0,0c0,0,0,0,0,0V108.9z"/>
											<polygon class="st0" points="67.6,130 67.6,130.1 67.7,130.1 67.7,130.1 67.7,130 67.6,130 											"/>
										</g>
									</g>
								</g>
								<g>
									<linearGradient id="SVGID_1_" gradientUnits="userSpaceOnUse" x1="164.525" y1="162.7433" x2="145.8795" y2="130.4485">
										<stop  offset="0" style="stop-color:#000000;stop-opacity:0"/>
										<stop  offset="1" style="stop-color:#000000"/>
									</linearGradient>
									<polygon class="st1" points="165.7,114.1 99.4,152.6 144.7,178.6 210.8,140.1 									"/>
								</g>
							</g>
						</g>
					</g>
				</g>
			</g>
		</g>
	</g>
	<g>
		<g class="st2">
			<g>
				<g class="st2">
					<g>
						<path class="st3" d="M75.7,79.3l30.7-17.8c2.9-1.7,5.9-3,9.3,1c3.4,4,6.4,2.6,9.3,0.9l13.1-7.6c2.4-1.4,5.3-0.2,6.4,2.7
							l21.1,56l-66.3,38.5L73.3,87C72.2,84.2,73.3,80.7,75.7,79.3"/>
					</g>
				</g>
			</g>
		</g>
		<g>
			<path class="st4" d="M104.9,64.3v71.4c0,3.9,3.2,5.3,7.1,3l39-22.5c3.9-2.3,7.1-7.3,7.1-11.3V33.5c0-3.9-3.2-5.3-7.1-3l-39,22.5
				C108.1,55.3,104.9,60.4,104.9,64.3z"/>
			<polygon class="st5" points="112.6,64.2 150.6,42.2 150.6,38.4 112.6,60.4 			"/>
			<polygon class="st5" points="112.6,75.6 150.6,53.6 150.6,49.8 112.6,71.8 			"/>
			<polygon class="st5" points="112.6,87 150.6,65.1 150.6,61.3 112.6,83.2 			"/>
			<polygon class="st5" points="112.6,98.5 150.6,76.5 150.6,72.7 112.6,94.6 			"/>
			<polygon class="st5" points="112.6,109.9 150.6,87.9 150.6,84.1 112.6,106.1 			"/>
		</g>
	</g>
</g>
</svg>
