<?xml version="1.0" encoding="utf-8"?>
<!-- Generator: Adobe Illustrator 21.1.0, SVG Export Plug-In . SVG Version: 6.00 Build 0)  -->
<svg version="1.1" id="Layer_1" xmlns="http://www.w3.org/2000/svg" xmlns:xlink="http://www.w3.org/1999/xlink" x="0px" y="0px"
	 viewBox="0 0 672.6 378.2" style="enable-background:new 0 0 672.6 378.2;" xml:space="preserve">
<style type="text/css">
	.st0{opacity:0.4;fill:#A6D8E2;}
	.st1{fill:#CFCF83;}
	.st2{fill:#DFDE9F;}
	.st3{fill:#D2B350;}
	.st4{fill:#E5C56E;}
	.st5{fill:#93C148;}
	.st6{fill:#A9CA54;}
	.st7{fill:#684C46;}
	.st8{fill:#442E2A;}
	.st9{fill:#86B43A;}
	.st10{fill:#64842C;}
	.st11{fill:#779D2C;}
	.st12{fill:#F8F4C5;}
	.st13{opacity:0.9;fill:#ECEDB1;}
	.st14{fill:#F5EE94;}
	.st15{fill:#D2796E;}
	.st16{fill:#BB645B;}
	.st17{fill:#E87464;}
	.st18{fill:#E9503F;}
	.st19{fill:#82BF73;}
	.st20{fill:#FDFAE2;}
	.st21{fill:#79C7CB;}
	.st22{fill:#9BD3D7;}
	.st23{fill:#DEF0F6;}
	.st24{fill:#E1E2A9;}
	.st25{fill:#5B423F;}
	.st26{fill:#4F322F;}
	.st27{fill:#695352;}
	.st28{fill:#3A2120;}
	.st29{fill:#14C44E;}
	.st30{fill:#12AF42;}
	.st31{opacity:0.6;fill:#8AAD4A;}
	.st32{fill:#AF4040;}
	.st33{fill:#363030;}
	.st34{fill:#5C5656;}
	.st35{fill:#DA7D7D;}
	.st36{fill:#4C211E;}
</style>
<g>
	<path class="st0" d="M62.7,317.8c0,0-7.9-117.1,49.2-188.4c57.1-71.3,105,29.3,148.1,0c43.1-29.3,76.3-103.5,130.6-81.2
		c54.3,22.3,48.9,75.4,86.5,81.2c37.5,5.8,97.6-30,120,35.6c22.4,65.5,0,152.8,0,152.8H62.7z"/>
	<path class="st0" d="M62.7,317.8c0,0-7.9-93.1,49.2-149.8c57.1-56.7,105,23.3,148.1,0c43.1-23.3,76.3-82.3,130.6-64.6
		c54.3,17.7,48.9,60,86.5,64.6c37.5,4.6,97.6-23.8,120,28.3c22.4,52.1,0,121.6,0,121.6H62.7z"/>
	<path class="st1" d="M114.5,312.4c0,0,100.9-95.7,123-96.5c22.1-0.8,126,96.5,126,96.5H114.5z"/>
	<path class="st2" d="M169.6,266.1c3.3,1.5,7.2-0.1,10.3-1.6c6.8-3.3,14.9-7,22.1-2.3c1.8,1.2,3.8,3.7,6,4.1
		c3.8,0.7,7.8-1.8,11.1-3.2c7.4-3.1,14-2.3,19.7,3.4c2.2,2.2,4.8,4.9,8.3,4c2.8-0.8,5-2.7,7.3-4.4c5.3-4,11.5-5.6,17.8-2.8
		c3.1,1.4,5.7,3.7,8.9,5c4.2,1.8,5.8-1,8.4-3.6c2.5-2.4,5.6-4.8,9.1-5.5c1.3-0.3,2.7-0.4,4-0.5c-27-22.4-55-43.2-65.3-42.9
		c-11.1,0.4-42.1,24.8-70.2,48.9C168,265.3,168.8,265.7,169.6,266.1z"/>
	<path class="st3" d="M231.1,315.4c0,0,134.6-127.7,164.2-128.8c29.5-1,168.2,128.8,168.2,128.8H231.1z"/>
	<path class="st4" d="M326.9,248.9c7.1,0,13-5.1,20.1-5.6c5.4-0.4,10.5,1.6,15.1,4.3c4,2.4,8.1,5.7,12.8,6.4
		c5.9,1,10.2-3.8,15.4-5.5c7.1-2.3,13.4-0.5,20.4,1c3.9,0.8,6.9,1,9.9-1.7c2-1.8,4.1-3.5,6.7-4.5c7.2-2.8,13.9-1.1,20.9,1.6
		c0.1,0,0.2,0.1,0.2,0.1c4-1.2,7.9-2.6,9.9-5.6c2.2-3.4,3.8-7.1,5.2-10.9c-29.5-23.4-56.9-42.3-68.3-41.9
		c-13,0.5-46.6,25.6-79.9,53.6C318,244.6,321.7,248.9,326.9,248.9z"/>
	<g>
		<path class="st5" d="M79.2,264.1c0,19.4,16.8,27.7,33.8,27.7c17,0,33.7-7.8,33.7-27.2c0-19.4-16.7-43.1-33.7-43.1
			C96,221.5,79.2,244.7,79.2,264.1z"/>
		<path class="st6" d="M97.4,279.1c7.5-1.5,14.1-5.1,20.2-9.6c5.7-4.3,12.5-9,16.2-15.3c3.1-5.4,3.4-11.2,3.4-17.1
			c5.8,8.2,9.6,18.4,9.6,27.6c0,19.4-16.7,27.2-33.7,27.2c-11.3,0-22.4-3.6-28.7-11.7C88.7,280.2,93.1,280,97.4,279.1z"/>
		<polygon class="st7" points="115.9,309.7 115.9,282.5 128.4,274.1 138.5,277.8 138.5,276.9 129.8,272.9 135.8,267.9 136.6,266 
			128.6,271.1 128.9,261.9 128.2,261.9 127.2,272.4 115.9,278.6 115.5,256.9 123.8,249.5 136.3,251.5 136.2,250.5 125.6,248.3 
			135.7,240.6 135.7,239.8 124.4,246.5 123.8,235.1 123.3,235.1 122.8,247.9 115.5,254.5 114.5,228 113.1,226.4 113.9,261.1 
			102.6,254.6 99.2,242.2 98.1,241.7 100.2,253.5 88.5,244.7 88.5,246.2 99.3,254.3 87.5,256.3 87.5,257 101.6,256.1 113.7,263.9 
			113,278.1 104.4,273.8 104.6,264.6 103.8,263.4 102.7,272.9 92.2,265.9 90.6,265.9 101.3,273.6 88.9,279 89.3,279.6 103.2,275.2 
			113,280.9 111.2,309.7 		"/>
		<path class="st8" d="M87.5,257v-0.7l11.8-2l-10.8-8.1v-1.5l11.8,8.8l-2.2-11.8l1.1,0.5l3.3,12.4l11.3,6.5l-0.8-34.7l0.4,0.5
			c0,0.1,0,0.2,0,0.2c0,5.8,0,11.5,0.3,17.3c0.3,5.6,0.2,11.3,0.8,16.8c0.4,3.3-0.1,48.5-0.1,48.5h-3.3l1.8-28.8l-9.8-5.7l-13.9,4.4
			l-0.3-0.5l12.4-5.4l-10.7-7.7h1.5l10.5,7l1.1-9.4l0.8,1.2l-0.2,9.1l8.6,4.3l0.7-14.2l-12.1-7.7L87.5,257z"/>
	</g>
	<g>
		<path class="st9" d="M179.1,277.2c0,14.5-12.5,20.7-25.3,20.7c-12.7,0-25.2-5.8-25.2-20.3c0-14.5,12.5-32.3,25.2-32.3
			C166.6,245.3,179.1,262.7,179.1,277.2z"/>
		<path class="st5" d="M165.5,288.4c-5.6-1.1-10.5-3.8-15.1-7.2c-4.3-3.2-9.3-6.7-12.1-11.5c-2.4-4.1-2.5-8.4-2.6-12.8
			c-4.3,6.1-7.2,13.7-7.2,20.6c0,14.5,12.5,20.3,25.2,20.3c8.4,0,16.8-2.7,21.4-8.8C172,289.2,168.7,289.1,165.5,288.4z"/>
		<polygon class="st7" points="151.7,311.3 151.7,290.9 142.3,284.7 134.8,287.5 134.8,286.8 141.3,283.7 136.8,280 136.2,278.6 
			142.2,282.5 142,275.5 142.5,275.5 143.3,283.4 151.7,288 152,271.8 145.8,266.3 136.4,267.8 136.5,267 144.4,265.4 136.9,259.7 
			136.9,259 145.3,264 145.8,255.5 146.2,255.5 146.5,265.1 152,270 152.8,250.2 153.8,249 153.2,274.9 161.7,270.1 164.2,260.8 
			165,260.5 163.4,269.3 172.2,262.7 172.2,263.8 164.1,269.9 172.9,271.4 172.9,271.9 162.4,271.2 153.3,277 153.9,287.7 
			160.3,284.4 160.2,277.6 160.8,276.7 161.6,283.7 169.4,278.5 170.6,278.5 162.6,284.3 171.9,288.4 171.6,288.8 161.2,285.5 
			153.9,289.8 155.2,311.3 		"/>
	</g>
	<path class="st10" d="M485.8,294.3c0-5.2-4.5-11.3-9-11.3c-4.5,0-9,6.3-9,11.5c0,4.9,4,7,8.2,7.2v4.8h1.2l-0.3-4.8
		C481.5,301.6,485.8,299.4,485.8,294.3z"/>
	<path class="st11" d="M590.2,284.6c0-8.4-7.2-18.4-14.6-18.4c-7.4,0-14.6,10.3-14.6,18.7c0,7.9,6.4,11.3,13.2,11.7l-0.5,14.5
		l3.4-2.9l-1.1-11.6C583.3,296.4,590.2,292.8,590.2,284.6z"/>
	<path class="st11" d="M187.9,292.3c0-5.1-4.4-11.1-8.8-11.1c-4.4,0-8.8,6.2-8.8,11.3c0,4.8,3.8,6.8,8,7.1l-0.3,8.8l2-1.8l-0.6-7
		C183.7,299.4,187.9,297.2,187.9,292.3z"/>
	<g>
		<path class="st5" d="M596.8,251c0,25.1-21.7,35.8-43.7,35.8c-22,0-43.6-10-43.6-35.1c0-25.1,21.6-55.8,43.6-55.8
			C575.1,195.9,596.8,225.9,596.8,251z"/>
		<path class="st6" d="M573.3,270.4c-9.7-2-18.2-6.6-26.1-12.5c-7.4-5.6-16.1-11.6-20.9-19.8c-4.1-7-4.3-14.5-4.4-22.1
			c-7.5,10.6-12.4,23.7-12.4,35.7c0,25.1,21.6,35.1,43.6,35.1c14.6,0,29-4.7,37.1-15.2C584.5,271.8,578.8,271.5,573.3,270.4z"/>
		<polygon class="st7" points="549.4,310 549.4,274.7 533.2,263.9 520.2,268.7 520.2,267.5 531.4,262.3 523.6,255.9 522.6,253.5 
			533,260.1 532.6,248.1 533.4,248.1 534.8,261.7 549.4,269.7 550,241.7 539.2,232.1 523,234.7 523.1,233.4 536.8,230.6 
			523.8,220.7 523.8,219.5 538.4,228.2 539.1,213.5 539.8,213.5 540.4,230.1 550,238.5 551.2,204.2 553,202.2 552,247.1 
			566.6,238.7 571,222.7 572.5,222.1 569.6,237.3 584.9,225.9 584.9,227.9 570.8,238.3 586.1,240.9 586.1,241.8 567.8,240.7 
			552.2,250.7 553.1,269.1 564.2,263.5 564,251.7 565,250.1 566.4,262.3 580.1,253.3 582.1,253.3 568.2,263.3 584.3,270.3 
			583.8,271 565.8,265.3 553.1,272.7 555.4,310 		"/>
		<path class="st8" d="M586.1,241.8v-0.9l-15.2-2.6l14-10.4v-2l-15.2,11.4l2.8-15.2l-1.5,0.6l-4.3,16l-14.6,8.4l1-44.8l-0.5,0.6
			c0,0.1,0,0.2,0,0.3c0,7.4-0.1,14.9-0.4,22.4c-0.4,7.2-0.3,14.6-1.1,21.8c-0.5,4.3,0.1,62.7,0.1,62.7h4.3l-2.3-37.2l12.7-7.4
			l18,5.7l0.4-0.7l-16-7l13.8-10h-2l-13.6,9l-1.4-12.2l-1,1.6l0.2,11.8l-11.1,5.6l-0.9-18.4l15.6-10L586.1,241.8z"/>
	</g>
	<g>
		<path class="st9" d="M474.6,268c0,18.8,16.2,26.8,32.7,26.8c16.4,0,32.6-7.5,32.6-26.3c0-18.8-16.2-41.7-32.6-41.7
			C490.8,226.7,474.6,249.2,474.6,268z"/>
		<path class="st5" d="M492.2,282.5c7.2-1.5,13.6-4.9,19.5-9.3c5.6-4.2,12.1-8.7,15.6-14.8c3-5.2,3.3-10.8,3.3-16.5
			c5.6,7.9,9.3,17.8,9.3,26.7c0,18.8-16.2,26.3-32.6,26.3c-10.9,0-21.7-3.5-27.7-11.3C483.8,283.5,488.1,283.3,492.2,282.5z"/>
		<polygon class="st7" points="510,312.1 510,285.7 522.2,277.6 531.9,281.2 531.9,280.3 523.5,276.4 529.4,271.6 530.1,269.8 
			522.3,274.8 522.6,265.8 522,265.8 521,276 510,282 509.7,261 517.7,253.8 529.8,255.7 529.8,254.7 519.5,252.7 529.2,245.3 
			529.2,244.4 518.3,250.9 517.7,239.9 517.2,239.9 516.8,252.3 509.7,258.6 508.7,233 507.4,231.5 508.1,265 497.2,258.7 
			493.9,246.8 492.8,246.3 494.9,257.7 483.5,249.1 483.5,250.6 494,258.4 482.6,260.4 482.6,261.1 496.3,260.2 508,267.7 
			507.3,281.5 499,277.3 499.1,268.5 498.4,267.3 497.3,276.4 487.1,269.7 485.6,269.7 496,277.2 484,282.4 484.3,282.9 
			497.8,278.7 507.3,284.2 505.6,312.1 		"/>
	</g>
	<path class="st8" d="M482.6,261.1v-0.7l11.4-1.9l-10.5-7.8v-1.5l11.4,8.5l-2.1-11.4l1.1,0.5l3.2,12l10.9,6.3l-0.7-33.5l0.4,0.4
		c0,0.1,0,0.1,0,0.2c0,5.6,0,11.2,0.3,16.7c0.3,5.4,0.2,10.9,0.8,16.3c0.4,3.2-0.1,46.9-0.1,46.9h-3.2l1.7-27.9l-9.5-5.5l-13.5,4.2
		l-0.3-0.5l12-5.2l-10.3-7.5h1.5l10.2,6.7l1-9.1l0.7,1.2l-0.1,8.8l8.3,4.2l0.7-13.8l-11.7-7.5L482.6,261.1z"/>
	<circle class="st4" cx="312.5" cy="257.7" r="1.6"/>
	<circle class="st4" cx="319.4" cy="264.7" r="4"/>
	<circle class="st4" cx="329.2" cy="263" r="2.3"/>
	<circle class="st4" cx="379.9" cy="264.8" r="1.8"/>
	<circle class="st4" cx="399.7" cy="268.9" r="3.5"/>
	<circle class="st4" cx="389.3" cy="264.7" r="1.6"/>
	<circle class="st4" cx="441.9" cy="261.8" r="4.1"/>
	<circle class="st4" cx="449.3" cy="257.5" r="1.4"/>
	<circle class="st4" cx="459.2" cy="258.2" r="2"/>
	<circle class="st2" cx="194.5" cy="270" r="1.2"/>
	<circle class="st2" cx="202.4" cy="273.3" r="2.6"/>
	<circle class="st2" cx="210" cy="273.9" r="1.5"/>
	<circle class="st2" cx="258.9" cy="275.2" r="1.9"/>
	<circle class="st2" cx="220.4" cy="274.4" r="1.9"/>
	<circle class="st2" cx="226.1" cy="275.4" r="1.1"/>
	<circle class="st2" cx="293.2" cy="274.1" r="1.6"/>
	<circle class="st2" cx="297.6" cy="271.6" r="1.6"/>
	<g>
		<polygon class="st12" points="454.8,307.2 454.8,270.5 419.5,239.2 384.5,270.5 384.5,307.4 		"/>
		<path class="st13" d="M411.8,258.4c8.3,1.1,16.3,3.3,24.1,6.6c6.7,2.8,13.1,6.4,19.1,10.7v-5.2l-36.3-31.3l-27.8,24
			C397.6,260.3,403.8,257.4,411.8,258.4z"/>
		<polygon class="st7" points="419.6,237.3 378.5,270.5 384.9,270.5 419.6,242.9 		"/>
		<polygon class="st8" points="419.6,237.3 460.8,270.5 454.4,270.5 419.6,242.9 		"/>
		<g>
			<rect x="390.5" y="276.3" class="st14" width="20.7" height="21.5"/>
			<path class="st15" d="M399.7,275.8c0,0,0.2,3.8-2,7.4c-2.2,3.6-4.3,4.8-4.3,4.8s2.1,2.2,2.7,4.5c0.5,2.2,1.2,5.7,1.2,5.7h-6.2
				l-0.5-22.4H399.7z"/>
			<path class="st16" d="M396.3,280.7c0,0-2.5,7-3.5,6.9C391.9,287.6,396.3,280.7,396.3,280.7z"/>
			<path class="st16" d="M392.7,280.7c0,0,0,6.9-0.5,6.9C391.7,287.7,392.7,280.7,392.7,280.7z"/>
			<path class="st16" d="M393,296.3c0,0-1.5-7.3-0.7-7.7C393.1,288.1,393,296.3,393,296.3z"/>
			<path class="st16" d="M396,294.4c0,0-3.6-5.9-3.2-6.2C393.2,287.9,396,294.4,396,294.4z"/>
			<path class="st15" d="M402.1,275.8c0,0-0.2,3.8,2,7.4c2.2,3.6,4.3,4.8,4.3,4.8s-2.1,2.2-2.7,4.5c-0.5,2.2-1.2,5.7-1.2,5.7h6.2
				l0.5-22.4H402.1z"/>
			<path class="st16" d="M405.5,280.7c0,0,2.5,7,3.5,6.9C409.9,287.6,405.5,280.7,405.5,280.7z"/>
			<path class="st16" d="M409.1,280.7c0,0,0.1,6.9,0.5,6.9C410.1,287.7,409.1,280.7,409.1,280.7z"/>
			<path class="st16" d="M408.8,296.3c0,0,1.5-7.3,0.7-7.7C408.7,288.1,408.8,296.3,408.8,296.3z"/>
			<path class="st16" d="M405.8,294.4c0,0,3.6-5.9,3.2-6.2C408.6,287.9,405.8,294.4,405.8,294.4z"/>
			<g>
				<path class="st7" d="M389.7,275.4v23.2h22.4v-23.2H389.7z M410.3,296.9h-9V287h-1.5v9.9h-8.4V287h8.4v-1.5h-8.4v-8.4h18.9V296.9
					z"/>
				<path class="st8" d="M389.8,275.4c0.7,0.5,1.2,1.1,1.6,1.9v-0.1h8.4v9.9h0.6h0.9h9.1l0-1.5l-9.2,0v-8.4h9v19.8h-0.4
					c0.8,0.4,1.5,1,2,1.7h0.2v-23.2H389.8z"/>
			</g>
		</g>
		<rect x="419.6" y="274.5" class="st8" width="17.8" height="32.9"/>
		<rect x="420.8" y="275.8" class="st7" width="15.3" height="31.5"/>
		<rect x="422.2" y="277.1" class="st8" width="2.8" height="15.3"/>
		<rect x="425.4" y="277.1" class="st8" width="2.8" height="15.3"/>
		<rect x="428.6" y="277.1" class="st8" width="2.8" height="15.3"/>
		<rect x="431.8" y="277.1" class="st8" width="2.8" height="15.3"/>
		<rect x="422.2" y="294.4" class="st8" width="2.8" height="11.5"/>
		<rect x="425.4" y="294.4" class="st8" width="2.8" height="11.5"/>
		<rect x="428.6" y="294.4" class="st8" width="2.8" height="11.5"/>
		<rect x="431.8" y="294.4" class="st8" width="2.8" height="11.5"/>
		<g>
			<path class="st17" d="M444.1,289c0,0.4-0.3,0.7-0.7,0.7l0,0c-0.4,0-0.7-0.3-0.7-0.7l0,0c0-0.4,0.3-0.7,0.7-0.7l0,0
				C443.8,288.3,444.1,288.6,444.1,289L444.1,289z"/>
			<path class="st17" d="M448.3,288.1c0,0.4-0.3,0.7-0.7,0.7l0,0c-0.4,0-0.7-0.3-0.7-0.7l0,0c0-0.4,0.3-0.7,0.7-0.7l0,0
				C448,287.4,448.3,287.7,448.3,288.1L448.3,288.1z"/>
			<path class="st17" d="M446.9,289.6c0,0.4-0.3,0.7-0.7,0.7l0,0c-0.4,0-0.7-0.3-0.7-0.7l0,0c0-0.4,0.3-0.7,0.7-0.7l0,0
				C446.6,288.9,446.9,289.2,446.9,289.6L446.9,289.6z"/>
			<path class="st17" d="M450.7,289.8c0,0.4-0.3,0.7-0.7,0.7l0,0c-0.4,0-0.7-0.3-0.7-0.7l0,0c0-0.4,0.3-0.7,0.7-0.7l0,0
				C450.4,289.1,450.7,289.4,450.7,289.8L450.7,289.8z"/>
			<path class="st17" d="M442.4,289.6c0,0.4-0.3,0.7-0.7,0.7l0,0c-0.4,0-0.7-0.3-0.7-0.7l0,0c0-0.4,0.3-0.7,0.7-0.7l0,0
				C442.1,288.9,442.4,289.2,442.4,289.6L442.4,289.6z"/>
			<path class="st18" d="M444.9,288.2c0,0.2-0.2,0.4-0.4,0.4l0,0c-0.2,0-0.4-0.2-0.4-0.4l0,0c0-0.2,0.2-0.4,0.4-0.4l0,0
				C444.7,287.8,444.9,288,444.9,288.2L444.9,288.2z"/>
			<path class="st18" d="M444.9,290c0,0.2-0.2,0.4-0.4,0.4l0,0c-0.2,0-0.4-0.2-0.4-0.4l0,0c0-0.2,0.2-0.4,0.4-0.4l0,0
				C444.7,289.7,444.9,289.8,444.9,290L444.9,290z"/>
			<path class="st18" d="M448.7,289.2c0,0.2-0.2,0.4-0.4,0.4l0,0c-0.2,0-0.4-0.2-0.4-0.4l0,0c0-0.2,0.2-0.4,0.4-0.4l0,0
				C448.6,288.8,448.7,289,448.7,289.2L448.7,289.2z"/>
			<path class="st18" d="M451.7,290c0,0.2-0.2,0.4-0.4,0.4l0,0c-0.2,0-0.4-0.2-0.4-0.4l0,0c0-0.2,0.2-0.4,0.4-0.4l0,0
				C451.5,289.6,451.7,289.8,451.7,290L451.7,290z"/>
			<polygon class="st19" points="441.8,290.8 441.7,289.9 441.6,290.8 			"/>
			<polygon class="st19" points="443.4,289.1 443.2,290.6 443.4,290.6 			"/>
			<polygon class="st19" points="444.5,290 444.5,290.7 444.4,290.7 			"/>
			<polygon class="st19" points="444.5,288.2 444.6,289.5 444.5,289.5 			"/>
			<polygon class="st19" points="446.2,289.5 446.1,290.6 446.3,290.6 			"/>
			<polygon class="st19" points="447.7,288.1 447.4,290.6 447.8,290.6 			"/>
			<polygon class="st19" points="448.5,290.7 448.2,290.7 448.4,289.4 			"/>
			<polygon class="st19" points="450.1,289.7 450,290.7 450.1,290.7 			"/>
			<polygon class="st19" points="451.3,290 451.4,290.7 451.3,290.7 			"/>
		</g>
		<g>
			<rect x="440.3" y="290.6" class="st8" width="12.6" height="0.7"/>
			<g>
				<rect x="440.6" y="291.1" class="st8" width="11.9" height="3.9"/>
				<rect x="441.4" y="291.6" class="st7" width="10.5" height="2.7"/>
				<rect x="442.2" y="291.1" class="st8" width="0.5" height="3.7"/>
				<rect x="443.3" y="291.1" class="st8" width="0.5" height="3.7"/>
				<rect x="444.3" y="291.1" class="st8" width="0.5" height="3.7"/>
				<rect x="445.3" y="291.1" class="st8" width="0.5" height="3.7"/>
				<rect x="446.4" y="291.1" class="st8" width="0.5" height="3.7"/>
				<rect x="447.4" y="291.1" class="st8" width="0.5" height="3.7"/>
				<rect x="448.4" y="291.1" class="st8" width="0.5" height="3.7"/>
				<rect x="449.5" y="291.1" class="st8" width="0.5" height="3.7"/>
				<rect x="450.5" y="291.1" class="st8" width="0.5" height="3.7"/>
			</g>
		</g>
	</g>
	<g>
		<polygon class="st20" points="379,290.4 380.6,289.2 382.2,290.4 382.2,307 379,307 		"/>
		<polygon class="st20" points="372.1,290.4 373.7,289.2 375.3,290.4 375.3,307 372.1,307 		"/>
		<polygon class="st20" points="365.2,290.4 366.8,289.2 368.4,290.4 368.4,307 365.2,307 		"/>
		<polygon class="st20" points="358.2,290.4 359.8,289.2 361.4,290.4 361.4,307 358.2,307 		"/>
		<polygon class="st20" points="351.1,290.4 352.7,289.2 354.3,290.4 354.3,307 351.1,307 		"/>
		<rect x="352.2" y="293.7" class="st20" width="32.3" height="1.1"/>
		<rect x="352.2" y="300.8" class="st20" width="32.3" height="1.1"/>
	</g>
	<g>
		<path class="st21" d="M312.3,207.8c0.1-0.3,0.1-0.6,0.1-1c0-2.5-1.9-4.5-4.3-4.5h-5.4c-0.9-2.9-3.5-5.1-6.6-5.1H286
			c-3.1,0-5.7,2.1-6.6,5.1h-1.5c-2.4,0-4.3,2-4.3,4.5c0,0.4,0,0.7,0.1,1c-2.5,0.6-4.3,2.9-4.3,5.6c0,3.2,2.5,5.7,5.5,5.7h36.7
			c3,0,5.5-2.6,5.5-5.7C317.1,210.6,315,208.2,312.3,207.8z"/>
	</g>
	<g>
		<path class="st22" d="M157.3,176c-0.1-0.3-0.1-0.6-0.1-0.8c0-2.1,1.7-3.9,3.7-3.9h4.6c0.8-2.5,3.1-4.4,5.7-4.4h8.8
			c2.7,0,5,1.8,5.7,4.4h1.3c2,0,3.7,1.7,3.7,3.9c0,0.3,0,0.6-0.1,0.9c2.1,0.5,3.8,2.5,3.8,4.9c0,2.7-2.1,5-4.8,5h-31.8
			c-2.6,0-4.8-2.2-4.8-5C153.2,178.4,155,176.4,157.3,176z"/>
	</g>
	<path class="st23" d="M119.9,190.6h2.6c-0.1-0.3-0.2-0.6-0.2-0.9c0-1.4,1.1-2.5,2.5-2.5h1.4c-0.2-0.4-0.3-0.8-0.3-1.2
		c0-1.7,1.4-3.1,3.1-3.1H144c1.7,0,3.1,1.4,3.1,3.1c0,0.4-0.1,0.9-0.3,1.2h4.1c1.4,0,2.5,1.1,2.5,2.5c0,0.3-0.1,0.6-0.2,0.9h2.1
		c1.6,0,2.8,1.3,2.8,2.8c0,1.6-1.3,2.8-2.8,2.8h-35.6c-1.6,0-2.8-1.3-2.8-2.8C117.1,191.9,118.3,190.6,119.9,190.6z"/>
	<g>
		<path class="st22" d="M489.2,181.3c0.1-0.2,0.1-0.5,0.1-0.7c0-1.8-1.4-3.3-3.2-3.3h-4c-0.7-2.2-2.6-3.8-5-3.8h-7.6
			c-2.3,0-4.3,1.6-5,3.8h-1.1c-1.8,0-3.2,1.5-3.2,3.3c0,0.3,0,0.5,0.1,0.8c-1.8,0.4-3.2,2.1-3.2,4.2c0,2.4,1.8,4.3,4.1,4.3h27.4
			c2.3,0,4.1-1.9,4.1-4.3C492.8,183.3,491.2,181.5,489.2,181.3z"/>
	</g>
	<path class="st23" d="M521.5,193.8h-2.3c0.1-0.2,0.2-0.5,0.2-0.8c0-1.2-1-2.2-2.2-2.2H516c0.1-0.3,0.2-0.7,0.2-1.1
		c0-1.5-1.2-2.7-2.7-2.7h-12.8c-1.5,0-2.7,1.2-2.7,2.7c0,0.4,0.1,0.7,0.2,1.1h-3.6c-1.2,0-2.2,1-2.2,2.2c0,0.3,0.1,0.5,0.2,0.8h-1.9
		c-1.3,0-2.4,1.1-2.4,2.4c0,1.3,1.1,2.4,2.4,2.4h30.7c1.3,0,2.4-1.1,2.4-2.4C523.9,194.9,522.9,193.8,521.5,193.8z"/>
	<polygon class="st12" points="262.5,309.7 254.1,251.7 239,251.7 231.2,309.2 	"/>
	<circle class="st24" cx="241.1" cy="274.2" r="1.8"/>
	<circle class="st24" cx="242.3" cy="271.1" r="0.9"/>
	<circle class="st24" cx="244.3" cy="274" r="0.9"/>
	
		<ellipse transform="matrix(0.3711 -0.9286 0.9286 0.3711 -103.8971 414.8816)" class="st24" cx="254.3" cy="284.1" rx="1.2" ry="1.2"/>
	
		<ellipse transform="matrix(0.3708 -0.9287 0.9287 0.3708 -106.5063 414.5372)" class="st24" cx="252.7" cy="285.9" rx="0.6" ry="0.6"/>
	
		<ellipse transform="matrix(0.3705 -0.9288 0.9288 0.3705 -104.5621 412.608)" class="st24" cx="252.1" cy="283.4" rx="0.6" ry="0.6"/>
	<polygon class="st25" points="235.7,266.2 237.4,251.7 240.4,247.5 246.8,245.8 246.8,266.2 	"/>
	<polygon class="st26" points="258,266.2 256.2,251.7 253.3,247.5 246.8,245.8 246.8,266.2 	"/>
	<path class="st25" d="M252.3,306.5v-16c0-3-2.5-5.5-5.5-5.5c-3,0-5.5,2.5-5.5,5.5v16H252.3z"/>
	<path class="st26" d="M250.1,293.5c0.7,3.9,1.7,7.7,2.2,11.6v-14.6c0-3-2.5-5.5-5.5-5.5c-2.7,0-4.9,2-5.4,4.5
		C245.1,287.7,249.3,289.1,250.1,293.5z"/>
	<g>
		
			<rect x="227" y="226.4" transform="matrix(0.6461 -0.7633 0.7633 0.6461 -104.1842 261.9881)" class="st27" width="6.8" height="34"/>
		<g>
			
				<rect x="215.7" y="232.7" transform="matrix(0.6469 -0.7626 0.7626 0.6469 -100.6756 248.8532)" class="st28" width="5.3" height="0.8"/>
			
				<rect x="216.7" y="233.6" transform="matrix(0.6469 -0.7626 0.7626 0.6469 -100.9871 249.9838)" class="st28" width="5.3" height="0.8"/>
			
				<rect x="217.8" y="234.5" transform="matrix(0.6453 -0.7639 0.7639 0.6453 -101.2643 251.7778)" class="st28" width="5.3" height="0.8"/>
			
				<rect x="218.9" y="235.4" transform="matrix(0.6462 -0.7632 0.7632 0.6462 -101.5961 252.5162)" class="st28" width="5.3" height="0.8"/>
			
				<rect x="219.9" y="236.3" transform="matrix(0.6473 -0.7623 0.7623 0.6473 -101.9305 253.1998)" class="st28" width="5.3" height="0.8"/>
			
				<rect x="221" y="237.2" transform="matrix(0.6462 -0.7632 0.7632 0.6462 -102.2188 254.7786)" class="st28" width="5.3" height="0.8"/>
			
				<rect x="222.1" y="238.1" transform="matrix(0.6457 -0.7636 0.7636 0.6457 -102.5197 256.1113)" class="st28" width="5.3" height="0.8"/>
			
				<rect x="223.1" y="239" transform="matrix(0.6463 -0.7631 0.7631 0.6463 -102.8437 256.9937)" class="st28" width="5.3" height="0.8"/>
			
				<rect x="224.2" y="239.9" transform="matrix(0.6464 -0.763 0.763 0.6464 -103.1567 258.1009)" class="st28" width="5.3" height="0.8"/>
			
				<rect x="225.3" y="240.8" transform="matrix(0.6462 -0.7632 0.7632 0.6462 -103.463 259.3264)" class="st28" width="5.3" height="0.8"/>
			
				<rect x="226.3" y="241.7" transform="matrix(0.6467 -0.7628 0.7628 0.6467 -103.7865 260.2335)" class="st28" width="5.3" height="0.8"/>
			<polygon class="st28" points="228.7,245.4 228,244.8 231.5,240.7 232.1,241.3 			"/>
			
				<rect x="228.5" y="243.5" transform="matrix(0.6473 -0.7623 0.7623 0.6473 -104.4232 262.2409)" class="st28" width="5.3" height="0.8"/>
			
				<rect x="229.5" y="244.4" transform="matrix(0.6446 -0.7645 0.7645 0.6446 -104.6694 264.5299)" class="st28" width="5.3" height="0.8"/>
			
				<rect x="230.6" y="245.3" transform="matrix(0.6462 -0.7632 0.7632 0.6462 -105.0191 264.9862)" class="st28" width="5.3" height="0.8"/>
			
				<rect x="231.7" y="246.2" transform="matrix(0.6457 -0.7635 0.7635 0.6457 -105.3199 266.3047)" class="st28" width="5.3" height="0.8"/>
			
				<rect x="232.7" y="247.1" transform="matrix(0.6453 -0.7639 0.7639 0.6453 -105.6186 267.6477)" class="st28" width="5.3" height="0.8"/>
			
				<rect x="233.8" y="248" transform="matrix(0.6457 -0.7636 0.7636 0.6457 -105.9406 268.5921)" class="st28" width="5.3" height="0.8"/>
			<polygon class="st28" points="236.1,251.7 235.5,251.1 238.9,247.1 239.6,247.6 			"/>
			
				<rect x="235.9" y="249.8" transform="matrix(0.6463 -0.7631 0.7631 0.6463 -106.5805 270.5744)" class="st28" width="5.3" height="0.8"/>
			
				<rect x="237" y="250.7" transform="matrix(0.6462 -0.7632 0.7632 0.6462 -106.888 271.7567)" class="st28" width="5.3" height="0.8"/>
			
				<rect x="238.1" y="251.6" transform="matrix(0.6463 -0.7631 0.7631 0.6463 -107.2025 272.8363)" class="st28" width="5.3" height="0.8"/>
			
				<rect x="239.1" y="252.6" transform="matrix(0.6469 -0.7626 0.7626 0.6469 -107.5284 273.7275)" class="st28" width="5.3" height="0.8"/>
		</g>
	</g>
	<g>
		
			<rect x="214.5" y="269.1" transform="matrix(0.7196 -0.6944 0.6944 0.7196 -124.2848 237.1386)" class="st27" width="34" height="6.8"/>
		<g>
			
				<rect x="219.7" y="280.7" transform="matrix(0.72 -0.694 0.694 0.72 -135.064 232.1135)" class="st28" width="0.8" height="5.3"/>
			
				<rect x="220.7" y="279.8" transform="matrix(0.72 -0.694 0.694 0.72 -134.1103 232.5391)" class="st28" width="0.8" height="5.3"/>
			
				<rect x="221.7" y="278.8" transform="matrix(0.7191 -0.695 0.695 0.7191 -133.2193 233.4257)" class="st28" width="0.8" height="5.3"/>
			
				<rect x="222.7" y="277.8" transform="matrix(0.72 -0.694 0.694 0.72 -132.1992 233.3656)" class="st28" width="0.8" height="5.3"/>
			
				<rect x="223.7" y="276.9" transform="matrix(0.7208 -0.6931 0.6931 0.7208 -131.1917 233.3721)" class="st28" width="0.8" height="5.3"/>
			
				<rect x="224.7" y="275.9" transform="matrix(0.7196 -0.6944 0.6944 0.7196 -130.3182 234.428)" class="st28" width="0.8" height="5.3"/>
			
				<rect x="225.7" y="274.9" transform="matrix(0.7186 -0.6954 0.6954 0.7186 -129.425 235.3627)" class="st28" width="0.8" height="5.3"/>
			
				<rect x="226.7" y="274" transform="matrix(0.7195 -0.6945 0.6945 0.7195 -128.4166 235.342)" class="st28" width="0.8" height="5.3"/>
			<rect x="227.7" y="273" transform="matrix(0.72 -0.694 0.694 0.72 -127.4338 235.5175)" class="st28" width="0.8" height="5.3"/>
			<polygon class="st28" points="231.3,276.3 230.7,276.9 227,273.1 227.6,272.5 			"/>
			
				<rect x="229.7" y="271.1" transform="matrix(0.7195 -0.6944 0.6944 0.7195 -125.5486 236.5802)" class="st28" width="0.8" height="5.3"/>
			
				<rect x="230.7" y="270.1" transform="matrix(0.7205 -0.6935 0.6935 0.7205 -124.5462 236.5354)" class="st28" width="0.8" height="5.3"/>
			
				<rect x="231.7" y="269.1" transform="matrix(0.72 -0.694 0.694 0.72 -123.6165 237.1957)" class="st28" width="0.8" height="5.3"/>
			
				<rect x="232.7" y="268.1" transform="matrix(0.719 -0.695 0.695 0.719 -122.7085 238.1152)" class="st28" width="0.8" height="5.3"/>
			
				<rect x="233.7" y="267.2" transform="matrix(0.7191 -0.6949 0.6949 0.7191 -121.7502 238.5157)" class="st28" width="0.8" height="5.3"/>
			
				<rect x="234.7" y="266.2" transform="matrix(0.7195 -0.6944 0.6944 0.7195 -120.7754 238.7082)" class="st28" width="0.8" height="5.3"/>
			
				<rect x="235.7" y="265.2" transform="matrix(0.7185 -0.6955 0.6955 0.7185 -119.8615 239.6443)" class="st28" width="0.8" height="5.3"/>
			
				<rect x="236.7" y="264.3" transform="matrix(0.7191 -0.695 0.695 0.7191 -118.8849 239.8094)" class="st28" width="0.8" height="5.3"/>
			
				<rect x="237.7" y="263.3" transform="matrix(0.72 -0.694 0.694 0.72 -117.8959 239.7731)" class="st28" width="0.8" height="5.3"/>
			
				<rect x="238.8" y="262.3" transform="matrix(0.72 -0.694 0.694 0.72 -116.9421 240.1972)" class="st28" width="0.8" height="5.3"/>
			
				<rect x="239.8" y="261.4" transform="matrix(0.7196 -0.6944 0.6944 0.7196 -116.0005 240.8111)" class="st28" width="0.8" height="5.3"/>
			
				<rect x="240.8" y="260.4" transform="matrix(0.7191 -0.695 0.695 0.7191 -115.0631 241.512)" class="st28" width="0.8" height="5.3"/>
			
				<rect x="241.8" y="259.4" transform="matrix(0.72 -0.694 0.694 0.72 -114.0795 241.4506)" class="st28" width="0.8" height="5.3"/>
		</g>
	</g>
	<g>
		
			<rect x="260.5" y="254.5" transform="matrix(0.6461 -0.7632 0.7632 0.6461 -113.8566 297.4972)" class="st27" width="6.8" height="34"/>
		<g>
			
				<rect x="273.3" y="281.3" transform="matrix(0.6457 -0.7636 0.7636 0.6457 -117.3672 310.5027)" class="st28" width="5.3" height="0.8"/>
			
				<rect x="272.2" y="280.4" transform="matrix(0.6462 -0.7632 0.7632 0.6462 -117.0716 309.1538)" class="st28" width="5.3" height="0.8"/>
			
				<rect x="271.1" y="279.5" transform="matrix(0.6453 -0.7639 0.7639 0.6453 -116.7273 308.4773)" class="st28" width="5.3" height="0.8"/>
			
				<rect x="270.1" y="278.6" transform="matrix(0.6469 -0.7626 0.7626 0.6469 -116.4744 306.5394)" class="st28" width="5.3" height="0.8"/>
			
				<rect x="269" y="277.7" transform="matrix(0.6469 -0.7626 0.7626 0.6469 -116.1622 305.4102)" class="st28" width="5.3" height="0.8"/>
			
				<rect x="267.9" y="276.8" transform="matrix(0.6457 -0.7636 0.7636 0.6457 -115.8112 304.8395)" class="st28" width="5.3" height="0.8"/>
			
				<rect x="266.9" y="275.9" transform="matrix(0.6453 -0.7639 0.7639 0.6453 -115.485 303.9213)" class="st28" width="5.3" height="0.8"/>
			
				<rect x="265.8" y="275" transform="matrix(0.6468 -0.7627 0.7627 0.6468 -115.2267 302.0458)" class="st28" width="5.3" height="0.8"/>
			
				<rect x="264.7" y="274.1" transform="matrix(0.6464 -0.763 0.763 0.6464 -114.9006 301.1219)" class="st28" width="5.3" height="0.8"/>
			
				<rect x="263.7" y="273.2" transform="matrix(0.6462 -0.7632 0.7632 0.6462 -114.5813 300.0986)" class="st28" width="5.3" height="0.8"/>
			
				<rect x="262.6" y="272.3" transform="matrix(0.6467 -0.7628 0.7628 0.6467 -114.2879 298.7095)" class="st28" width="5.3" height="0.8"/>
			
				<rect x="261.6" y="271.4" transform="matrix(0.6468 -0.7627 0.7627 0.6468 -113.9805 297.5229)" class="st28" width="5.3" height="0.8"/>
			
				<rect x="260.5" y="270.5" transform="matrix(0.6468 -0.7627 0.7627 0.6468 -113.6689 296.3905)" class="st28" width="5.3" height="0.8"/>
			
				<rect x="259.4" y="269.6" transform="matrix(0.6446 -0.7645 0.7645 0.6446 -113.2842 296.3231)" class="st28" width="5.3" height="0.8"/>
			
				<rect x="258.4" y="268.7" transform="matrix(0.6466 -0.7628 0.7628 0.6466 -113.0389 294.2359)" class="st28" width="5.3" height="0.8"/>
			
				<rect x="257.3" y="267.8" transform="matrix(0.6457 -0.7636 0.7636 0.6457 -112.6998 293.5139)" class="st28" width="5.3" height="0.8"/>
			
				<rect x="256.2" y="266.9" transform="matrix(0.6457 -0.7636 0.7636 0.6457 -112.3886 292.3799)" class="st28" width="5.3" height="0.8"/>
			
				<rect x="255.2" y="266" transform="matrix(0.6457 -0.7636 0.7636 0.6457 -112.0764 291.2699)" class="st28" width="5.3" height="0.8"/>
			
				<rect x="254.1" y="265.1" transform="matrix(0.6469 -0.7626 0.7626 0.6469 -111.8016 289.58)" class="st28" width="5.3" height="0.8"/>
			
				<rect x="253" y="264.2" transform="matrix(0.6463 -0.7631 0.7631 0.6463 -111.4733 288.6999)" class="st28" width="5.3" height="0.8"/>
			
				<rect x="252" y="263.3" transform="matrix(0.6457 -0.7636 0.7636 0.6457 -111.1443 287.8489)" class="st28" width="5.3" height="0.8"/>
			
				<rect x="250.9" y="262.4" transform="matrix(0.6468 -0.7627 0.7627 0.6468 -110.8657 286.2148)" class="st28" width="5.3" height="0.8"/>
			
				<rect x="249.8" y="261.5" transform="matrix(0.6462 -0.7632 0.7632 0.6462 -110.5364 285.3622)" class="st28" width="5.3" height="0.8"/>
		</g>
	</g>
	<g>
		
			<rect x="245.9" y="239" transform="matrix(0.7196 -0.6944 0.6944 0.7196 -94.6332 250.5117)" class="st27" width="34" height="6.8"/>
		<g>
			
				<rect x="273.8" y="228.8" transform="matrix(0.72 -0.694 0.694 0.72 -83.8377 255.1266)" class="st28" width="0.8" height="5.3"/>
			
				<rect x="272.8" y="229.7" transform="matrix(0.72 -0.694 0.694 0.72 -84.7913 254.7012)" class="st28" width="0.8" height="5.3"/>
			
				<rect x="271.8" y="230.7" transform="matrix(0.7191 -0.695 0.695 0.7191 -85.7175 254.7404)" class="st28" width="0.8" height="5.3"/>
			
				<rect x="270.8" y="231.7" transform="matrix(0.7191 -0.695 0.695 0.7191 -86.6735 254.3151)" class="st28" width="0.8" height="5.3"/>
			
				<rect x="269.8" y="232.7" transform="matrix(0.7208 -0.6931 0.6931 0.7208 -87.6751 252.9754)" class="st28" width="0.8" height="5.3"/>
			
				<rect x="268.8" y="233.6" transform="matrix(0.7195 -0.6944 0.6944 0.7195 -88.5966 253.2114)" class="st28" width="0.8" height="5.3"/>
			
				<rect x="267.8" y="234.6" transform="matrix(0.7186 -0.6954 0.6954 0.7186 -89.5297 253.274)" class="st28" width="0.8" height="5.3"/>
			
				<rect x="266.8" y="235.6" transform="matrix(0.7204 -0.6935 0.6935 0.7204 -90.5231 251.9144)" class="st28" width="0.8" height="5.3"/>
			
				<rect x="265.8" y="236.5" transform="matrix(0.7191 -0.695 0.695 0.7191 -91.4513 252.1872)" class="st28" width="0.8" height="5.3"/>
			<polygon class="st28" points="263,238.5 263.6,238 267.3,241.8 266.7,242.4 			"/>
			
				<rect x="263.8" y="238.5" transform="matrix(0.7195 -0.6944 0.6944 0.7195 -93.3693 251.0837)" class="st28" width="0.8" height="5.3"/>
			
				<rect x="262.8" y="239.4" transform="matrix(0.7204 -0.6935 0.6935 0.7204 -94.3346 250.2108)" class="st28" width="0.8" height="5.3"/>
			
				<rect x="261.8" y="240.4" transform="matrix(0.7195 -0.6945 0.6945 0.7195 -95.2782 250.2559)" class="st28" width="0.8" height="5.3"/>
			
				<rect x="260.7" y="241.4" transform="matrix(0.7191 -0.6949 0.6949 0.7191 -96.2299 250.0187)" class="st28" width="0.8" height="5.3"/>
			
				<rect x="259.7" y="242.3" transform="matrix(0.7186 -0.6954 0.6954 0.7186 -97.1823 249.8557)" class="st28" width="0.8" height="5.3"/>
			
				<rect x="258.7" y="243.3" transform="matrix(0.7196 -0.6944 0.6944 0.7196 -98.1427 248.9313)" class="st28" width="0.8" height="5.3"/>
			
				<rect x="257.7" y="244.3" transform="matrix(0.7186 -0.6954 0.6954 0.7186 -99.0949 249.0166)" class="st28" width="0.8" height="5.3"/>
			
				<rect x="256.7" y="245.3" transform="matrix(0.719 -0.695 0.695 0.719 -100.052 248.3809)" class="st28" width="0.8" height="5.3"/>
			
				<rect x="255.7" y="246.2" transform="matrix(0.7195 -0.6945 0.6945 0.7195 -101.0066 247.7029)" class="st28" width="0.8" height="5.3"/>
			
				<rect x="254.7" y="247.2" transform="matrix(0.7191 -0.695 0.695 0.7191 -101.963 247.5068)" class="st28" width="0.8" height="5.3"/>
			
				<rect x="253.7" y="248.2" transform="matrix(0.7191 -0.6949 0.6949 0.7191 -102.9184 247.064)" class="st28" width="0.8" height="5.3"/>
			
				<rect x="252.7" y="249.1" transform="matrix(0.7186 -0.6954 0.6954 0.7186 -103.8771 246.8896)" class="st28" width="0.8" height="5.3"/>
			
				<rect x="251.7" y="250.1" transform="matrix(0.7195 -0.6944 0.6944 0.7195 -104.8249 245.9762)" class="st28" width="0.8" height="5.3"/>
		</g>
	</g>
	<g>
		<polygon class="st20" points="225.6,290.3 227.2,289.1 228.9,290.3 228.9,306.9 225.6,306.9 		"/>
		<polygon class="st20" points="218.8,290.3 220.4,289.1 222,290.3 222,306.9 218.8,306.9 		"/>
		<polygon class="st20" points="211.8,290.3 213.4,289.1 215,290.3 215,306.9 211.8,306.9 		"/>
		<polygon class="st20" points="204.8,290.3 206.4,289.1 208.1,290.3 208.1,306.9 204.8,306.9 		"/>
		<polygon class="st20" points="197.7,290.3 199.4,289.1 201,290.3 201,306.9 197.7,306.9 		"/>
		<rect x="198.9" y="293.6" class="st20" width="36.1" height="1.1"/>
		<rect x="198.9" y="300.7" class="st20" width="34.1" height="1.1"/>
	</g>
	<g>
		<polygon class="st20" points="268.8,290.3 267.2,289.1 265.6,290.3 265.6,306.9 268.8,306.9 		"/>
		<polygon class="st20" points="275.7,290.3 274.1,289.1 272.5,290.3 272.5,306.9 275.7,306.9 		"/>
		<polygon class="st20" points="282.7,290.3 281.1,289.1 279.4,290.3 279.4,306.9 282.7,306.9 		"/>
		<polygon class="st20" points="289.6,290.3 288,289.1 286.4,290.3 286.4,306.9 289.6,306.9 		"/>
		<polygon class="st20" points="296.7,290.3 295.1,289.1 293.5,290.3 293.5,306.9 296.7,306.9 		"/>
		<rect x="259.5" y="293.6" class="st20" width="36.1" height="1.1"/>
		<rect x="261.5" y="300.7" class="st20" width="34.1" height="1.1"/>
	</g>
	<rect x="62.3" y="306.5" class="st29" width="538.5" height="20.8"/>
	<path class="st30" d="M62.3,306.5v9.9c2.7,0.6,5.4,0.9,8,1.2c3-0.1,6.1-0.2,9.1-0.5c6.4-0.6,12.5-2.2,18.8-3.5
		c10.8-2.2,22.1-2.9,32.6,1.4c9.4,3.9,18.3,6.6,28.2,7.5c6.7-1.4,13.4-2.7,20.2-2.8c0.8,0,1.5,0.2,2,0.6c11.8-0.1,23.5-2.1,35.3-2.9
		c6.2-0.4,12.4-0.6,18.6,0.3c5.6,0.8,10.9,2.8,16.5,3.6c5.6,0.8,11.2,0.2,16.8-0.1c3.9-1.3,7.9-2.1,12.1-2
		c5.9,0.1,11.8,1.3,17.7,1.6c7.5,0.3,14.1-2.3,21.4-3.5c6.3-1,12,0.8,17.9,2.7c11.5,3.7,21.4-0.7,32.8-2.5c12-1.9,23.7,2.1,35.7,3
		c11.8,0.9,22.6-4.2,34.2-4.1c11.7,0.1,23.2,1.8,34.8-0.1c10.7-1.8,21.2-4,32-1.7c12.4,2.7,24.2,6.1,37,3.1
		c10.6-2.4,20-4.4,30.5-0.6c8.8,3.2,17,7.8,26.3,8.4v-19.2H62.3z"/>
	<ellipse class="st31" cx="238.7" cy="349.9" rx="53.6" ry="2.4"/>
	<g>
		<g>
			<g>
				<polygon class="st32" points="234.1,302.6 239.1,317.2 258.9,317.2 262.7,321 262.7,335.4 210.7,335.4 210.7,332.8 210.7,317.2 
					210.7,302.6 				"/>
				<g>
					<circle class="st33" cx="216.8" cy="335.7" r="14.2"/>
					<circle class="st34" cx="216.8" cy="335.7" r="6.7"/>
				</g>
				<g>
					<circle class="st33" cx="258.7" cy="339.8" r="10.1"/>
					<circle class="st34" cx="258.7" cy="339.8" r="4.8"/>
				</g>
				<polygon class="st35" points="236.7,318 232.7,305.1 223.8,305.1 223.8,318 				"/>
				<rect x="213.7" y="305.1" class="st35" width="8.5" height="12.9"/>
				<rect x="249.4" y="314" class="st36" width="5.1" height="3.2"/>
				<rect x="251.2" y="305.1" class="st36" width="1.5" height="9.8"/>
				<g>
					<polygon class="st36" points="230.5,327.6 234.1,327.6 234.1,325.6 231.5,325.6 227.7,320.5 205.3,320.5 200.9,325.2 
						202.3,326.5 206.1,322.4 226.7,322.4 					"/>
				</g>
			</g>
			<g>
				<polygon class="st35" points="259.7,321.4 260.4,321.3 256.8,317.7 256.2,317.8 				"/>
				<polygon class="st35" points="257.8,321.4 258.4,321.3 254.9,317.7 254.2,317.8 				"/>
				<polygon class="st35" points="255.8,321.4 256.5,321.3 252.9,317.7 252.2,317.8 				"/>
				<polygon class="st35" points="253.9,321.4 254.5,321.3 250.9,317.7 250.3,317.8 				"/>
				<polygon class="st35" points="251.9,321.4 252.6,321.3 249,317.7 248.3,317.8 				"/>
			</g>
		</g>
	</g>
</g>
</svg>
