<?xml version="1.0" encoding="utf-8"?>
<!-- Generator: Adobe Illustrator 21.1.0, SVG Export Plug-In . SVG Version: 6.00 Build 0)  -->
<svg version="1.1" id="Layer_1" xmlns="http://www.w3.org/2000/svg" xmlns:xlink="http://www.w3.org/1999/xlink" x="0px" y="0px"
	 viewBox="0 0 202 171.2" style="enable-background:new 0 0 202 171.2;" xml:space="preserve">
<style type="text/css">
	.st0{fill:#7B348C;}
	.st1{fill:#572262;}
	.st2{fill:#8F3894;}
	.st3{fill:#37B34A;}
	.st4{fill:#31A444;}
</style>
<g>
	<g>
		<g>
			<path class="st0" d="M98.8,136.4c-15,4.6-32.2,3.1-41-8.3c-0.4-0.5-0.7-1-1-1.5c-7.2-11-2.8-25.6,7.2-33.1
				c8.7-6.5,19.8-8.5,29.9-11.6c6.6-2,20.5-5.8,27.3-26.7c1.6-5,7.3-12.4,17-9.3c5.1,1.6,10,5.9,9.6,15.2
				C146,101.5,125.7,128.1,98.8,136.4z"/>
		</g>
		<g>
			<path class="st1" d="M138.2,45.9c-1.5-0.5-2.8-0.7-4.1-0.7c4,2.2,8.2,7.6,6.4,20.3c-3.6,26.8-19,54.4-49.3,57.3
				c-20,1.9-32.2-6-36.6-16.7c-2.4,6.7-2.1,14.2,2.1,20.5c0.3,0.5,0.7,1,1,1.5c8.8,11.4,26,12.9,41,8.3c26.9-8.3,47.1-34.9,49-75.3
				C148.2,51.8,143.3,47.5,138.2,45.9z"/>
		</g>
		<g>
			<path class="st2" d="M74.8,95.4c-4.7,1.9-9.3,7.1-5.6,13.1c4.8,7.7,17.4,6.7,24.5,3.7c10.8-4.5,17.1-11.7,20.2-19
				c2.1-5,1.7-9.1-0.9-10.2c-4-1.7-8.2,1.6-11.4,3.5C91.2,93,81.6,92.7,74.8,95.4z"/>
		</g>
	</g>
	<path class="st3" d="M136.2,41.4c-7.1,0-10.3,2.7-12.7,6.8c-2,3.4-3.6,4-3.6,4s3.3,1.6,7.1-0.7c3.8-2.3,3.8-2.3,3.8-2.3
		s-1,1.6,0.5,5.1c1.5,3.5,0.6,6,0.6,6s9.9-3,7.3-9.7c0,0,1.6,1.9,4.6,2.5c3,0.6,5.1,3.6,5.1,3.6s0.1-4.4-2-8.3
		C144.7,44.5,141.6,41.4,136.2,41.4z"/>
	<path class="st4" d="M146.8,48.4c-2.1-3.9-5.2-7-10.6-7c0.4-5.2-2.4-8.9-2.4-8.9c-2.6-0.8-4,2.4-4,2.4c3.7,2.3,4,6.7,4,6.7
		c1.1,1.3,2,2.8,2.3,4.6c0.9,5.3-1.8,8.2-1.8,8.2s-3.2-1.6-3.7-5.1l-0.3,1.5c0,0.8,0.1,2,0.8,3.6c1.5,3.5,0.6,6,0.6,6s9.9-3,7.3-9.7
		c0,0,1.6,1.9,4.6,2.5c3,0.6,5.1,3.6,5.1,3.6S148.9,52.4,146.8,48.4z"/>
</g>
</svg>
