<?xml version="1.0" encoding="utf-8"?>
<!-- Generator: Adobe Illustrator 21.1.0, SVG Export Plug-In . SVG Version: 6.00 Build 0)  -->
<svg version="1.1" id="Layer_1" xmlns="http://www.w3.org/2000/svg" xmlns:xlink="http://www.w3.org/1999/xlink" x="0px" y="0px"
	 viewBox="0 0 202 171.2" style="enable-background:new 0 0 202 171.2;" xml:space="preserve">
<style type="text/css">
	.st0{fill:#683C11;}
	.st1{fill:#789B0D;}
	.st2{fill:#95C11F;}
	.st3{fill:#E6332A;}
	.st4{fill:#FF4C48;}
	.st5{fill:#CE1915;}
</style>
<g>
	<g>
		<path class="st0" d="M106.2,34.4c-5.7,6.1-9.6,20.9-6.1,28.6c1.9-9.6,5.2-16.9,11.8-22.5c-1.7-1.9-3.6-4.1-5.3-5.6L106.2,34.4z"/>
		<g>
			<path class="st1" d="M71.8,36.4C71.8,36.4,71.8,36.4,71.8,36.4l0.1,0.2c6.2,12.6,16.3,19.7,30.3,11.9
				C98.6,34.3,84.7,32.2,71.8,36.4z"/>
			<g>
				<path class="st2" d="M71.8,36.4c9.7,1.3,21.3,5,30.4,12.1C98.6,34.3,84.7,32.2,71.8,36.4z"/>
			</g>
		</g>
		<path class="st3" d="M106.1,59.6c-3.1,1.5-4.8,2.1-8.5,1.5c-2.5-0.4-7.3-2.1-8.4-2.5l-1.8-0.7c-15.1-6-36.8,7.6-35.2,26.3
			c0.8,9.9,3.4,15.5,7.7,24.2c4.3,8.7,12.1,18.6,19.7,24.2c4.4,3.2,6.4,4.3,11.3,3.6c4-0.6,7.6-1.9,12-1.7
			c8.4,0.4,14.9,5.4,22.4-0.4c7-5.5,12.2-13.2,15.7-21.3c3.8-8.6,5.3-12,7.6-21.1c4.1-15.8-3.7-35.1-20.3-36.1
			C119.3,54.9,114.3,55.7,106.1,59.6z"/>
		<ellipse transform="matrix(0.8621 -0.5067 0.5067 0.8621 -26.0608 46.1136)" class="st4" cx="71.7" cy="70.9" rx="7.6" ry="4.9"/>
		
			<ellipse transform="matrix(6.292186e-03 -1 1 6.292186e-03 -18.7352 142.3224)" class="st4" cx="62.2" cy="80.6" rx="3.1" ry="3.1"/>
		<g>
			<path class="st5" d="M128.2,55.4c7.8,5.4,12.4,13.8,10.6,29.8c-2,17.4-9.1,39.2-21.1,51.6c2.5,0,5.1-0.7,7.7-2.8
				c7-5.5,12.2-13.2,15.7-21.3c3.8-8.6,5.3-12,7.6-21.1c4.1-15.8-3.7-35.1-20.3-36.1C128.4,55.4,128.3,55.4,128.2,55.4z"/>
		</g>
	</g>
</g>
</svg>
